<svg xmlns="http://www.w3.org/2000/svg" version="1.1" xmlns:xlink="http://www.w3.org/1999/xlink" width="1000" height="1000"><style>
    #light-icon {
      display: inline;
    }
    #dark-icon {
      display: none;
    }

    @media (prefers-color-scheme: dark) {
      #light-icon {
        display: none;
      }
      #dark-icon {
        display: inline;
      }
    }
  </style><g id="light-icon"><svg xmlns="http://www.w3.org/2000/svg" version="1.1" xmlns:xlink="http://www.w3.org/1999/xlink" width="1000" height="1000"><g><g transform="matrix(2,0,0,2,0,0)" style="filter: contrast(1) brightness(1)"><svg xmlns="http://www.w3.org/2000/svg" version="1.1" xmlns:xlink="http://www.w3.org/1999/xlink" width="500" height="500"><svg xmlns="http://www.w3.org/2000/svg" xmlns:xlink="http://www.w3.org/1999/xlink" width="500" zoomAndPan="magnify" viewBox="0 0 375 374.999991" height="500" preserveAspectRatio="xMidYMid meet" version="1.0"><defs><g></g><clipPath id="9c68f8fe39"><rect x="0" width="272" y="0" height="110"></rect></clipPath></defs><g transform="matrix(1, 0, 0, 1, 52, 132)"><g clip-path="url(#9c68f8fe39)"><g fill="#000000" fill-opacity="1"><g transform="translate(1.047843, 61.340935)"><g><path d="M 6.234375 -41.84375 C 6.234375 -47.070312 7.34375 -50.992188 9.5625 -53.609375 C 11.789062 -56.234375 15.738281 -57.546875 21.40625 -57.546875 C 25.0625 -57.546875 28.71875 -56.914062 32.375 -55.65625 C 36.03125 -54.40625 39.613281 -52.703125 43.125 -50.546875 C 46.644531 -48.398438 50 -45.875 53.1875 -42.96875 C 56.375 -40.0625 59.332031 -36.960938 62.0625 -33.671875 C 65.363281 -29.722656 67.945312 -26.0625 69.8125 -22.6875 C 71.675781 -19.320312 72.609375 -16.597656 72.609375 -14.515625 C 72.609375 -13.085938 72.210938 -11.472656 71.421875 -9.671875 C 70.628906 -7.878906 69.265625 -6.195312 67.328125 -4.625 C 65.398438 -3.050781 62.710938 -1.796875 59.265625 -0.859375 C 55.828125 0.0664062 51.488281 0.53125 46.25 0.53125 L 27.96875 0 L 10.546875 -0.21875 C 10.328125 -0.21875 9.894531 -0.195312 9.25 -0.15625 C 8.601562 -0.125 7.8125 -0.0859375 6.875 -0.046875 C 5.945312 -0.015625 4.925781 0.0507812 3.8125 0.15625 C 2.707031 0.269531 1.613281 0.394531 0.53125 0.53125 C 2.394531 -1.332031 4.632812 -2.601562 7.25 -3.28125 C 9.875 -3.957031 12.441406 -4.476562 14.953125 -4.84375 C 17.171875 -5.195312 18.976562 -5.769531 20.375 -6.5625 C 21.78125 -7.351562 22.96875 -8.375 23.9375 -9.625 C 24.90625 -10.882812 25.691406 -12.390625 26.296875 -14.140625 C 26.910156 -15.898438 27.503906 -17.925781 28.078125 -20.21875 C 28.648438 -22.445312 29.273438 -24.6875 29.953125 -26.9375 C 30.640625 -29.195312 31.519531 -31.296875 32.59375 -33.234375 C 33.664062 -35.171875 35.0625 -36.910156 36.78125 -38.453125 C 38.507812 -39.992188 40.660156 -41.195312 43.234375 -42.0625 C 41.878906 -40.40625 40.75 -38.878906 39.84375 -37.484375 C 38.945312 -36.085938 38.160156 -34.617188 37.484375 -33.078125 C 36.804688 -31.535156 36.179688 -29.832031 35.609375 -27.96875 C 35.035156 -26.101562 34.390625 -23.878906 33.671875 -21.296875 C 33.171875 -19.648438 32.6875 -18.109375 32.21875 -16.671875 C 31.75 -15.234375 31.15625 -13.882812 30.4375 -12.625 C 29.71875 -11.375 28.820312 -10.25 27.75 -9.25 C 26.675781 -8.25 25.242188 -7.316406 23.453125 -6.453125 L 20.109375 -4.84375 L 20.109375 -4.625 L 53.140625 -3.328125 C 57.078125 -3.191406 60.117188 -3.460938 62.265625 -4.140625 C 64.421875 -4.816406 66.019531 -5.640625 67.0625 -6.609375 C 68.101562 -7.578125 68.710938 -8.492188 68.890625 -9.359375 C 69.066406 -10.222656 69.15625 -10.722656 69.15625 -10.859375 C 69.15625 -12.515625 68.5625 -14.5625 67.375 -17 C 66.195312 -19.4375 64.765625 -21.910156 63.078125 -24.421875 C 61.398438 -26.929688 59.628906 -29.347656 57.765625 -31.671875 C 55.898438 -34.003906 54.320312 -35.925781 53.03125 -37.4375 C 51.375 -39.300781 49.46875 -41.328125 47.3125 -43.515625 C 45.164062 -45.703125 42.75 -47.707031 40.0625 -49.53125 C 37.375 -51.363281 34.453125 -52.890625 31.296875 -54.109375 C 28.140625 -55.328125 24.804688 -55.9375 21.296875 -55.9375 C 19.148438 -55.9375 17.410156 -55.664062 16.078125 -55.125 C 14.753906 -54.582031 13.695312 -53.773438 12.90625 -52.703125 C 12.113281 -51.628906 11.570312 -50.285156 11.28125 -48.671875 C 11 -47.054688 10.859375 -45.207031 10.859375 -43.125 L 11.71875 -33.78125 C 11.863281 -33.0625 11.9375 -32.34375 11.9375 -31.625 C 11.9375 -30.90625 11.722656 -30.164062 11.296875 -29.40625 C 10.867188 -28.65625 10.363281 -27.816406 9.78125 -26.890625 C 9.28125 -26.097656 8.992188 -25.628906 8.921875 -25.484375 C 8.847656 -25.347656 8.742188 -25.132812 8.609375 -24.84375 C 7.890625 -27.425781 7.3125 -30.222656 6.875 -33.234375 C 6.445312 -36.242188 6.234375 -39.113281 6.234375 -41.84375 Z M 6.234375 -41.84375 "></path></g></g></g><g fill="#000000" fill-opacity="1"><g transform="translate(76.336302, 61.340935)"><g><path d="M 4.84375 -27.109375 C 6.132812 -26.242188 7.191406 -25.09375 8.015625 -23.65625 C 8.835938 -22.226562 9.285156 -20.722656 9.359375 -19.140625 L 9.359375 -18.28125 C 9.359375 -17.5625 9.265625 -16.769531 9.078125 -15.90625 C 8.898438 -15.050781 8.5625 -13.835938 8.0625 -12.265625 C 7.851562 -11.472656 7.617188 -10.554688 7.359375 -9.515625 C 7.109375 -8.472656 6.984375 -7.453125 6.984375 -6.453125 C 6.984375 -5.304688 7.253906 -4.535156 7.796875 -4.140625 C 8.335938 -3.742188 9.144531 -3.546875 10.21875 -3.546875 C 11.789062 -3.546875 13.148438 -3.832031 14.296875 -4.40625 C 15.453125 -4.976562 16.441406 -5.675781 17.265625 -6.5 C 18.085938 -7.332031 18.765625 -8.234375 19.296875 -9.203125 C 19.835938 -10.171875 20.289062 -11.046875 20.65625 -11.828125 C 21.15625 -12.835938 21.53125 -14.164062 21.78125 -15.8125 C 22.03125 -17.457031 22.226562 -19 22.375 -20.4375 L 22.703125 -23.453125 L 25.703125 -23.453125 L 26.140625 -18.609375 C 26.140625 -16.523438 25.816406 -14.191406 25.171875 -11.609375 C 24.523438 -9.035156 23.410156 -6.382812 21.828125 -3.65625 L 25.59375 -3.65625 C 26.3125 -3.65625 26.9375 -3.671875 27.46875 -3.703125 C 28.007812 -3.742188 28.53125 -3.867188 29.03125 -4.078125 C 29.539062 -4.296875 30.046875 -4.582031 30.546875 -4.9375 C 31.046875 -5.300781 31.65625 -5.804688 32.375 -6.453125 L 32.484375 -6.5625 L 32.703125 -6.34375 C 32.128906 -5.488281 31.570312 -4.644531 31.03125 -3.8125 C 30.488281 -2.988281 29.878906 -2.253906 29.203125 -1.609375 C 28.523438 -0.960938 27.769531 -0.441406 26.9375 -0.046875 C 26.113281 0.335938 25.164062 0.53125 24.09375 0.53125 C 22.65625 0.53125 21.613281 0.191406 20.96875 -0.484375 C 20.320312 -1.160156 19.710938 -2.144531 19.140625 -3.4375 L 18.390625 -5.375 L 17.96875 -4.953125 C 16.8125 -3.734375 15.476562 -2.515625 13.96875 -1.296875 C 12.46875 -0.078125 10.785156 0.53125 8.921875 0.53125 C 7.992188 0.53125 7.132812 0.300781 6.34375 -0.15625 C 5.550781 -0.625 4.882812 -1.21875 4.34375 -1.9375 C 3.8125 -2.65625 3.382812 -3.476562 3.0625 -4.40625 C 2.738281 -5.34375 2.578125 -6.238281 2.578125 -7.09375 C 2.578125 -8.238281 2.6875 -9.1875 2.90625 -9.9375 C 3.125 -10.695312 3.410156 -11.507812 3.765625 -12.375 L 4.296875 -13.984375 C 4.660156 -14.847656 5.109375 -15.957031 5.640625 -17.3125 C 6.179688 -18.675781 6.453125 -19.859375 6.453125 -20.859375 C 6.453125 -21.367188 6.34375 -22.035156 6.125 -22.859375 C 5.914062 -23.679688 5.628906 -24.628906 5.265625 -25.703125 Z M 4.84375 -27.109375 "></path></g></g></g><g fill="#000000" fill-opacity="1"><g transform="translate(108.602781, 61.340935)"><g><path d="M 5.59375 -27.109375 C 6.882812 -26.242188 7.957031 -25.054688 8.8125 -23.546875 C 9.675781 -22.046875 10.109375 -20.539062 10.109375 -19.03125 C 10.109375 -18.03125 9.960938 -16.957031 9.671875 -15.8125 C 9.390625 -14.664062 9 -13.335938 8.5 -11.828125 C 8.132812 -10.828125 7.804688 -9.820312 7.515625 -8.8125 C 7.234375 -7.8125 7.09375 -6.914062 7.09375 -6.125 C 7.09375 -5.050781 7.46875 -4.332031 8.21875 -3.96875 C 8.976562 -3.613281 9.894531 -3.4375 10.96875 -3.4375 C 12.625 -3.4375 14.164062 -3.972656 15.59375 -5.046875 C 17.03125 -6.128906 18.144531 -7.28125 18.9375 -8.5 C 20.007812 -10.144531 20.867188 -12.003906 21.515625 -14.078125 C 22.160156 -16.160156 22.585938 -19.210938 22.796875 -23.234375 L 22.796875 -23.453125 L 26.890625 -23.453125 C 26.742188 -21.515625 26.5625 -19.703125 26.34375 -18.015625 C 26.132812 -16.328125 25.90625 -14.640625 25.65625 -12.953125 C 25.40625 -11.273438 25.082031 -9.539062 24.6875 -7.75 C 24.289062 -5.957031 23.84375 -3.984375 23.34375 -1.828125 C 22.550781 1.179688 21.6875 4.117188 20.75 6.984375 C 19.820312 9.859375 18.820312 12.53125 17.75 15 C 16.675781 17.476562 15.546875 19.628906 14.359375 21.453125 C 13.171875 23.285156 12.003906 24.664062 10.859375 25.59375 C 9.566406 26.601562 8.347656 27.25 7.203125 27.53125 C 6.054688 27.820312 4.441406 27.929688 2.359375 27.859375 C 1.929688 27.859375 1.320312 27.835938 0.53125 27.796875 C -0.25 27.765625 -1.015625 27.660156 -1.765625 27.484375 C -2.523438 27.304688 -3.171875 27.019531 -3.703125 26.625 C -4.242188 26.226562 -4.515625 25.632812 -4.515625 24.84375 C -4.515625 24.34375 -4.265625 23.585938 -3.765625 22.578125 C -3.265625 21.578125 -2.671875 20.59375 -1.984375 19.625 C -1.304688 18.65625 -0.628906 17.8125 0.046875 17.09375 C 0.734375 16.382812 1.21875 16.03125 1.5 16.03125 C 1.71875 16.03125 1.828125 16.132812 1.828125 16.34375 C 1.828125 16.488281 1.578125 16.921875 1.078125 17.640625 C 0.710938 18.140625 0.316406 18.75 -0.109375 19.46875 C -0.535156 20.1875 -0.75 20.941406 -0.75 21.734375 C -0.75 22.441406 -0.410156 23.007812 0.265625 23.4375 C 0.953125 23.875 1.722656 24.195312 2.578125 24.40625 C 3.441406 24.625 4.320312 24.75 5.21875 24.78125 C 6.113281 24.820312 6.773438 24.84375 7.203125 24.84375 C 7.921875 24.84375 8.617188 24.679688 9.296875 24.359375 C 9.984375 24.035156 10.722656 23.015625 11.515625 21.296875 C 12.085938 20.078125 12.75 18.460938 13.5 16.453125 C 14.25 14.453125 15.035156 12.195312 15.859375 9.6875 C 16.691406 7.175781 17.484375 4.503906 18.234375 1.671875 C 18.984375 -1.160156 19.679688 -4.046875 20.328125 -6.984375 L 20.109375 -7.203125 C 18.035156 -4.984375 16.207031 -3.191406 14.625 -1.828125 C 13.050781 -0.460938 11.222656 0.21875 9.140625 0.21875 C 7.273438 0.21875 5.769531 -0.300781 4.625 -1.34375 C 3.476562 -2.382812 2.90625 -3.910156 2.90625 -5.921875 C 2.90625 -8.066406 3.726562 -11.039062 5.375 -14.84375 C 5.8125 -15.914062 6.222656 -16.972656 6.609375 -18.015625 C 7.003906 -19.054688 7.203125 -20.003906 7.203125 -20.859375 C 7.203125 -21.441406 7.078125 -22.195312 6.828125 -23.125 C 6.578125 -24.0625 6.273438 -25.03125 5.921875 -26.03125 Z M 5.59375 -27.109375 "></path></g></g></g><g fill="#000000" fill-opacity="1"><g transform="translate(138.718159, 61.340935)"><g><path d="M 8.0625 -26.25 C 8.425781 -27.96875 8.894531 -29.988281 9.46875 -32.3125 C 10.039062 -34.644531 10.703125 -37.082031 11.453125 -39.625 C 12.203125 -42.175781 13.078125 -44.671875 14.078125 -47.109375 C 15.085938 -49.546875 16.203125 -51.75 17.421875 -53.71875 C 18.640625 -55.695312 19.96875 -57.273438 21.40625 -58.453125 C 22.84375 -59.640625 24.421875 -60.234375 26.140625 -60.234375 C 29.648438 -60.234375 31.40625 -58.582031 31.40625 -55.28125 C 31.40625 -53.28125 30.882812 -51.507812 29.84375 -49.96875 C 28.800781 -48.425781 27.78125 -47.113281 26.78125 -46.03125 L 26.140625 -45.28125 C 25.640625 -44.707031 25.242188 -44.296875 24.953125 -44.046875 C 24.671875 -43.796875 24.347656 -43.5625 23.984375 -43.34375 L 23.65625 -43.03125 C 23.300781 -42.8125 23 -42.613281 22.75 -42.4375 C 22.5 -42.257812 22.300781 -42.171875 22.15625 -42.171875 C 21.726562 -42.171875 21.515625 -42.347656 21.515625 -42.703125 C 21.515625 -42.984375 22.015625 -43.554688 23.015625 -44.421875 C 24.023438 -45.359375 25.101562 -46.628906 26.25 -48.234375 C 27.394531 -49.847656 27.96875 -51.875 27.96875 -54.3125 C 27.96875 -56.6875 26.960938 -57.875 24.953125 -57.875 C 23.515625 -57.875 22.296875 -57.207031 21.296875 -55.875 C 20.296875 -54.550781 19.378906 -52.757812 18.546875 -50.5 C 17.722656 -48.238281 16.988281 -45.601562 16.34375 -42.59375 C 15.695312 -39.582031 15.019531 -36.390625 14.3125 -33.015625 C 13.019531 -26.566406 11.632812 -21.082031 10.15625 -16.5625 C 8.6875 -12.039062 6.878906 -7.847656 4.734375 -3.984375 L 13.765625 -3.984375 C 15.347656 -3.984375 16.65625 -4.125 17.6875 -4.40625 C 18.726562 -4.695312 19.785156 -5.128906 20.859375 -5.703125 L 21.078125 -5.484375 C 19.503906 -3.617188 17.960938 -2.238281 16.453125 -1.34375 C 14.953125 -0.445312 13.269531 0 11.40625 0 L 0.53125 0 L 1.609375 -2.6875 L 6.984375 -20.96875 Z M 8.0625 -26.25 "></path></g></g></g><g fill="#000000" fill-opacity="1"><g transform="translate(160.229149, 61.340935)"><g><path d="M 6.984375 -23.234375 C 6.984375 -24.742188 7.378906 -26.035156 8.171875 -27.109375 C 8.960938 -28.179688 10.003906 -29.039062 11.296875 -29.6875 C 12.585938 -30.332031 14.019531 -30.816406 15.59375 -31.140625 C 17.175781 -31.460938 18.71875 -31.625 20.21875 -31.625 C 21.082031 -31.625 22.191406 -31.550781 23.546875 -31.40625 C 24.910156 -31.257812 26.238281 -30.972656 27.53125 -30.546875 C 28.820312 -30.117188 29.953125 -29.523438 30.921875 -28.765625 C 31.890625 -28.015625 32.375 -27.066406 32.375 -25.921875 C 32.375 -24.484375 31.90625 -23.15625 30.96875 -21.9375 C 30.039062 -20.71875 28.894531 -19.625 27.53125 -18.65625 C 26.175781 -17.6875 24.691406 -16.828125 23.078125 -16.078125 C 21.460938 -15.328125 19.972656 -14.738281 18.609375 -14.3125 L 18.28125 -14.203125 L 18.28125 -13.984375 C 19.363281 -13.765625 20.476562 -13.457031 21.625 -13.0625 C 22.769531 -12.675781 23.828125 -12.160156 24.796875 -11.515625 C 25.765625 -10.867188 26.550781 -10.097656 27.15625 -9.203125 C 27.769531 -8.304688 28.078125 -7.210938 28.078125 -5.921875 C 28.078125 -4.265625 27.554688 -2.484375 26.515625 -0.578125 C 25.472656 1.316406 23.859375 3.085938 21.671875 4.734375 C 19.484375 6.378906 16.703125 7.757812 13.328125 8.875 C 9.960938 9.988281 5.953125 10.546875 1.296875 10.546875 L -3.125 10.21875 C -2.550781 9.21875 -1.941406 8.335938 -1.296875 7.578125 C -0.648438 6.828125 0.0664062 6.203125 0.859375 5.703125 C 3.941406 5.984375 6.195312 6.175781 7.625 6.28125 C 9.0625 6.394531 10.285156 6.453125 11.296875 6.453125 C 13.085938 6.453125 14.769531 6.164062 16.34375 5.59375 C 17.925781 5.019531 19.289062 4.25 20.4375 3.28125 C 21.582031 2.3125 22.476562 1.21875 23.125 0 C 23.769531 -1.21875 24.09375 -2.472656 24.09375 -3.765625 C 24.09375 -5.054688 23.769531 -6.128906 23.125 -6.984375 C 22.476562 -7.847656 21.617188 -8.515625 20.546875 -8.984375 C 19.472656 -9.453125 18.179688 -9.773438 16.671875 -9.953125 C 15.160156 -10.128906 13.546875 -10.21875 11.828125 -10.21875 L 5.703125 -9.890625 C 6.054688 -10.753906 6.445312 -11.523438 6.875 -12.203125 C 7.3125 -12.890625 7.851562 -13.519531 8.5 -14.09375 C 10.21875 -14.238281 12.132812 -14.5625 14.25 -15.0625 C 16.363281 -15.5625 18.367188 -16.273438 20.265625 -17.203125 C 22.171875 -18.140625 23.769531 -19.289062 25.0625 -20.65625 C 26.351562 -22.019531 27 -23.632812 27 -25.5 C 27 -27.144531 26.332031 -28.269531 25 -28.875 C 23.675781 -29.488281 22.296875 -29.796875 20.859375 -29.796875 C 18.285156 -29.796875 16.082031 -29.289062 14.25 -28.28125 C 12.425781 -27.28125 11.515625 -25.738281 11.515625 -23.65625 L 11.71875 -21.734375 C 11.070312 -21.296875 10.425781 -20.953125 9.78125 -20.703125 C 9.132812 -20.453125 8.492188 -20.21875 7.859375 -20 L 7.3125 -19.796875 Z M 6.984375 -23.234375 "></path></g></g></g><g fill="#000000" fill-opacity="1"><g transform="translate(196.797828, 61.340935)"><g><path d="M 8.0625 -22.375 C 7.988281 -23.375 8.164062 -24.445312 8.59375 -25.59375 C 9.03125 -26.75 9.800781 -27.789062 10.90625 -28.71875 C 12.019531 -29.65625 13.472656 -30.425781 15.265625 -31.03125 C 17.066406 -31.644531 19.328125 -31.953125 22.046875 -31.953125 C 23.054688 -31.953125 24.132812 -31.820312 25.28125 -31.5625 C 26.425781 -31.3125 27.484375 -30.914062 28.453125 -30.375 C 29.421875 -29.84375 30.207031 -29.164062 30.8125 -28.34375 C 31.425781 -27.519531 31.734375 -26.535156 31.734375 -25.390625 C 31.734375 -23.953125 31.375 -22.675781 30.65625 -21.5625 C 29.9375 -20.457031 29.039062 -19.4375 27.96875 -18.5 C 26.894531 -17.570312 25.75 -16.75 24.53125 -16.03125 C 23.3125 -15.3125 22.195312 -14.664062 21.1875 -14.09375 C 18.320312 -12.507812 15.6875 -10.984375 13.28125 -9.515625 C 10.882812 -8.046875 8.859375 -6.269531 7.203125 -4.1875 L 6.78125 -3.765625 L 16.03125 -3.765625 C 19.6875 -3.765625 22.570312 -3.960938 24.6875 -4.359375 C 26.800781 -4.753906 28.644531 -5.238281 30.21875 -5.8125 L 30.4375 -5.59375 C 29.144531 -4.375 28 -3.40625 27 -2.6875 C 26 -1.96875 24.992188 -1.410156 23.984375 -1.015625 C 22.984375 -0.628906 21.90625 -0.363281 20.75 -0.21875 C 19.601562 -0.0703125 18.171875 0 16.453125 0 L 7.421875 0 L 2.265625 -0.21875 C 4.128906 -3.300781 6.367188 -6.023438 8.984375 -8.390625 C 11.597656 -10.753906 14.269531 -12.976562 17 -15.0625 C 18.144531 -15.914062 19.363281 -16.84375 20.65625 -17.84375 C 21.945312 -18.851562 23.109375 -19.859375 24.140625 -20.859375 C 25.179688 -21.867188 26.039062 -22.875 26.71875 -23.875 C 27.40625 -24.882812 27.75 -25.851562 27.75 -26.78125 C 27.75 -27.5 27.515625 -28.070312 27.046875 -28.5 C 26.585938 -28.9375 26.035156 -29.28125 25.390625 -29.53125 C 24.742188 -29.78125 24.0625 -29.941406 23.34375 -30.015625 C 22.625 -30.085938 22.015625 -30.125 21.515625 -30.125 C 20.441406 -30.125 19.363281 -30.015625 18.28125 -29.796875 C 17.207031 -29.578125 16.257812 -29.21875 15.4375 -28.71875 C 14.613281 -28.21875 13.929688 -27.609375 13.390625 -26.890625 C 12.847656 -26.171875 12.578125 -25.3125 12.578125 -24.3125 L 12.796875 -21.734375 C 12.222656 -21.296875 11.578125 -20.914062 10.859375 -20.59375 C 10.140625 -20.269531 9.28125 -19.929688 8.28125 -19.578125 Z M 8.0625 -22.375 "></path></g></g></g><g fill="#000000" fill-opacity="1"><g transform="translate(231.215408, 61.340935)"><g><path d="M 19.796875 -20.65625 L 19.140625 -20.21875 C 17.921875 -19.570312 16.648438 -18.800781 15.328125 -17.90625 C 14.003906 -17.007812 12.765625 -16.023438 11.609375 -14.953125 C 10.460938 -13.878906 9.515625 -12.675781 8.765625 -11.34375 C 8.015625 -10.019531 7.640625 -8.566406 7.640625 -6.984375 C 7.640625 -5.410156 8.25 -4.441406 9.46875 -4.078125 C 10.6875 -3.722656 12.691406 -3.546875 15.484375 -3.546875 L 18.828125 -3.546875 C 20.828125 -3.546875 22.398438 -3.722656 23.546875 -4.078125 C 24.703125 -4.441406 25.566406 -4.890625 26.140625 -5.421875 C 26.710938 -5.960938 27.085938 -6.519531 27.265625 -7.09375 C 27.441406 -7.664062 27.53125 -8.207031 27.53125 -8.71875 C 27.53125 -9.863281 27.316406 -10.953125 26.890625 -11.984375 C 26.460938 -13.023438 25.90625 -14.007812 25.21875 -14.9375 C 24.539062 -15.875 23.789062 -16.753906 22.96875 -17.578125 C 22.144531 -18.410156 21.335938 -19.1875 20.546875 -19.90625 Z M 17.53125 -38.71875 C 19.820312 -40.082031 22.1875 -41.285156 24.625 -42.328125 C 27.0625 -43.367188 29.320312 -43.890625 31.40625 -43.890625 C 33.050781 -43.890625 34.210938 -43.457031 34.890625 -42.59375 C 35.578125 -41.726562 35.921875 -40.65625 35.921875 -39.375 L 35.703125 -36.46875 C 35.640625 -36.320312 35.191406 -35.78125 34.359375 -34.84375 C 33.535156 -33.914062 32.585938 -33.128906 31.515625 -32.484375 L 31.734375 -37.96875 C 31.734375 -39.039062 31.550781 -39.914062 31.1875 -40.59375 C 30.832031 -41.28125 30.15625 -41.625 29.15625 -41.625 C 28.289062 -41.625 27.101562 -41.375 25.59375 -40.875 C 24.09375 -40.375 22.609375 -39.707031 21.140625 -38.875 C 19.671875 -38.050781 18.378906 -37.140625 17.265625 -36.140625 C 16.148438 -35.140625 15.59375 -34.171875 15.59375 -33.234375 C 15.59375 -32.085938 16.921875 -30.222656 19.578125 -27.640625 L 22.90625 -24.3125 L 25.8125 -25.8125 C 26.101562 -25.957031 26.460938 -26.15625 26.890625 -26.40625 C 27.316406 -26.65625 27.765625 -26.882812 28.234375 -27.09375 C 28.703125 -27.3125 29.113281 -27.507812 29.46875 -27.6875 C 29.832031 -27.875 30.082031 -27.96875 30.21875 -27.96875 C 30.726562 -27.96875 30.984375 -27.71875 30.984375 -27.21875 C 30.984375 -26.925781 30.851562 -26.722656 30.59375 -26.609375 C 30.34375 -26.503906 30.148438 -26.382812 30.015625 -26.25 L 24.09375 -22.90625 L 24.53125 -22.484375 C 25.957031 -20.972656 27.296875 -19.359375 28.546875 -17.640625 C 29.804688 -15.921875 30.4375 -13.910156 30.4375 -11.609375 C 30.4375 -9.960938 30.039062 -8.367188 29.25 -6.828125 C 28.46875 -5.285156 27.21875 -3.90625 25.5 -2.6875 C 23.84375 -1.539062 22.117188 -0.769531 20.328125 -0.375 C 18.535156 0.0195312 16.457031 0.21875 14.09375 0.21875 L 10.4375 0.21875 C 8.28125 0.21875 6.46875 -0.0664062 5 -0.640625 C 3.53125 -1.210938 2.796875 -2.503906 2.796875 -4.515625 C 2.796875 -6.523438 3.242188 -8.351562 4.140625 -10 C 5.035156 -11.65625 6.144531 -13.144531 7.46875 -14.46875 C 8.800781 -15.789062 10.238281 -16.953125 11.78125 -17.953125 C 13.320312 -18.960938 14.703125 -19.828125 15.921875 -20.546875 L 18.390625 -21.9375 L 15.921875 -24.421875 C 14.910156 -25.421875 13.921875 -26.53125 12.953125 -27.75 C 11.992188 -28.96875 11.515625 -30.296875 11.515625 -31.734375 C 11.515625 -33.378906 12.15625 -34.757812 13.4375 -35.875 C 14.726562 -36.988281 16.09375 -37.9375 17.53125 -38.71875 Z M 17.53125 -38.71875 "></path></g></g></g></g></g></svg></svg></g></g></svg></g><g id="dark-icon"><svg xmlns="http://www.w3.org/2000/svg" version="1.1" xmlns:xlink="http://www.w3.org/1999/xlink" width="1000" height="1000"><g><g transform="matrix(2,0,0,2,0,0)" style="filter: contrast(0.3846153846153846) brightness(4.5)"><svg xmlns="http://www.w3.org/2000/svg" version="1.1" xmlns:xlink="http://www.w3.org/1999/xlink" width="500" height="500"><svg xmlns="http://www.w3.org/2000/svg" xmlns:xlink="http://www.w3.org/1999/xlink" width="500" zoomAndPan="magnify" viewBox="0 0 375 374.999991" height="500" preserveAspectRatio="xMidYMid meet" version="1.0"><defs><g></g><clipPath id="e4103eae5f"><rect x="0" width="272" y="0" height="110"></rect></clipPath></defs><g transform="matrix(1, 0, 0, 1, 52, 132)"><g clip-path="url(#e4103eae5f)"><g fill="#ffffff" fill-opacity="1"><g transform="translate(1.047843, 61.340935)"><g><path d="M 6.234375 -41.84375 C 6.234375 -47.070312 7.34375 -50.992188 9.5625 -53.609375 C 11.789062 -56.234375 15.738281 -57.546875 21.40625 -57.546875 C 25.0625 -57.546875 28.71875 -56.914062 32.375 -55.65625 C 36.03125 -54.40625 39.613281 -52.703125 43.125 -50.546875 C 46.644531 -48.398438 50 -45.875 53.1875 -42.96875 C 56.375 -40.0625 59.332031 -36.960938 62.0625 -33.671875 C 65.363281 -29.722656 67.945312 -26.0625 69.8125 -22.6875 C 71.675781 -19.320312 72.609375 -16.597656 72.609375 -14.515625 C 72.609375 -13.085938 72.210938 -11.472656 71.421875 -9.671875 C 70.628906 -7.878906 69.265625 -6.195312 67.328125 -4.625 C 65.398438 -3.050781 62.710938 -1.796875 59.265625 -0.859375 C 55.828125 0.0664062 51.488281 0.53125 46.25 0.53125 L 27.96875 0 L 10.546875 -0.21875 C 10.328125 -0.21875 9.894531 -0.195312 9.25 -0.15625 C 8.601562 -0.125 7.8125 -0.0859375 6.875 -0.046875 C 5.945312 -0.015625 4.925781 0.0507812 3.8125 0.15625 C 2.707031 0.269531 1.613281 0.394531 0.53125 0.53125 C 2.394531 -1.332031 4.632812 -2.601562 7.25 -3.28125 C 9.875 -3.957031 12.441406 -4.476562 14.953125 -4.84375 C 17.171875 -5.195312 18.976562 -5.769531 20.375 -6.5625 C 21.78125 -7.351562 22.96875 -8.375 23.9375 -9.625 C 24.90625 -10.882812 25.691406 -12.390625 26.296875 -14.140625 C 26.910156 -15.898438 27.503906 -17.925781 28.078125 -20.21875 C 28.648438 -22.445312 29.273438 -24.6875 29.953125 -26.9375 C 30.640625 -29.195312 31.519531 -31.296875 32.59375 -33.234375 C 33.664062 -35.171875 35.0625 -36.910156 36.78125 -38.453125 C 38.507812 -39.992188 40.660156 -41.195312 43.234375 -42.0625 C 41.878906 -40.40625 40.75 -38.878906 39.84375 -37.484375 C 38.945312 -36.085938 38.160156 -34.617188 37.484375 -33.078125 C 36.804688 -31.535156 36.179688 -29.832031 35.609375 -27.96875 C 35.035156 -26.101562 34.390625 -23.878906 33.671875 -21.296875 C 33.171875 -19.648438 32.6875 -18.109375 32.21875 -16.671875 C 31.75 -15.234375 31.15625 -13.882812 30.4375 -12.625 C 29.71875 -11.375 28.820312 -10.25 27.75 -9.25 C 26.675781 -8.25 25.242188 -7.316406 23.453125 -6.453125 L 20.109375 -4.84375 L 20.109375 -4.625 L 53.140625 -3.328125 C 57.078125 -3.191406 60.117188 -3.460938 62.265625 -4.140625 C 64.421875 -4.816406 66.019531 -5.640625 67.0625 -6.609375 C 68.101562 -7.578125 68.710938 -8.492188 68.890625 -9.359375 C 69.066406 -10.222656 69.15625 -10.722656 69.15625 -10.859375 C 69.15625 -12.515625 68.5625 -14.5625 67.375 -17 C 66.195312 -19.4375 64.765625 -21.910156 63.078125 -24.421875 C 61.398438 -26.929688 59.628906 -29.347656 57.765625 -31.671875 C 55.898438 -34.003906 54.320312 -35.925781 53.03125 -37.4375 C 51.375 -39.300781 49.46875 -41.328125 47.3125 -43.515625 C 45.164062 -45.703125 42.75 -47.707031 40.0625 -49.53125 C 37.375 -51.363281 34.453125 -52.890625 31.296875 -54.109375 C 28.140625 -55.328125 24.804688 -55.9375 21.296875 -55.9375 C 19.148438 -55.9375 17.410156 -55.664062 16.078125 -55.125 C 14.753906 -54.582031 13.695312 -53.773438 12.90625 -52.703125 C 12.113281 -51.628906 11.570312 -50.285156 11.28125 -48.671875 C 11 -47.054688 10.859375 -45.207031 10.859375 -43.125 L 11.71875 -33.78125 C 11.863281 -33.0625 11.9375 -32.34375 11.9375 -31.625 C 11.9375 -30.90625 11.722656 -30.164062 11.296875 -29.40625 C 10.867188 -28.65625 10.363281 -27.816406 9.78125 -26.890625 C 9.28125 -26.097656 8.992188 -25.628906 8.921875 -25.484375 C 8.847656 -25.347656 8.742188 -25.132812 8.609375 -24.84375 C 7.890625 -27.425781 7.3125 -30.222656 6.875 -33.234375 C 6.445312 -36.242188 6.234375 -39.113281 6.234375 -41.84375 Z M 6.234375 -41.84375 "></path></g></g></g><g fill="#ffffff" fill-opacity="1"><g transform="translate(76.336302, 61.340935)"><g><path d="M 4.84375 -27.109375 C 6.132812 -26.242188 7.191406 -25.09375 8.015625 -23.65625 C 8.835938 -22.226562 9.285156 -20.722656 9.359375 -19.140625 L 9.359375 -18.28125 C 9.359375 -17.5625 9.265625 -16.769531 9.078125 -15.90625 C 8.898438 -15.050781 8.5625 -13.835938 8.0625 -12.265625 C 7.851562 -11.472656 7.617188 -10.554688 7.359375 -9.515625 C 7.109375 -8.472656 6.984375 -7.453125 6.984375 -6.453125 C 6.984375 -5.304688 7.253906 -4.535156 7.796875 -4.140625 C 8.335938 -3.742188 9.144531 -3.546875 10.21875 -3.546875 C 11.789062 -3.546875 13.148438 -3.832031 14.296875 -4.40625 C 15.453125 -4.976562 16.441406 -5.675781 17.265625 -6.5 C 18.085938 -7.332031 18.765625 -8.234375 19.296875 -9.203125 C 19.835938 -10.171875 20.289062 -11.046875 20.65625 -11.828125 C 21.15625 -12.835938 21.53125 -14.164062 21.78125 -15.8125 C 22.03125 -17.457031 22.226562 -19 22.375 -20.4375 L 22.703125 -23.453125 L 25.703125 -23.453125 L 26.140625 -18.609375 C 26.140625 -16.523438 25.816406 -14.191406 25.171875 -11.609375 C 24.523438 -9.035156 23.410156 -6.382812 21.828125 -3.65625 L 25.59375 -3.65625 C 26.3125 -3.65625 26.9375 -3.671875 27.46875 -3.703125 C 28.007812 -3.742188 28.53125 -3.867188 29.03125 -4.078125 C 29.539062 -4.296875 30.046875 -4.582031 30.546875 -4.9375 C 31.046875 -5.300781 31.65625 -5.804688 32.375 -6.453125 L 32.484375 -6.5625 L 32.703125 -6.34375 C 32.128906 -5.488281 31.570312 -4.644531 31.03125 -3.8125 C 30.488281 -2.988281 29.878906 -2.253906 29.203125 -1.609375 C 28.523438 -0.960938 27.769531 -0.441406 26.9375 -0.046875 C 26.113281 0.335938 25.164062 0.53125 24.09375 0.53125 C 22.65625 0.53125 21.613281 0.191406 20.96875 -0.484375 C 20.320312 -1.160156 19.710938 -2.144531 19.140625 -3.4375 L 18.390625 -5.375 L 17.96875 -4.953125 C 16.8125 -3.734375 15.476562 -2.515625 13.96875 -1.296875 C 12.46875 -0.078125 10.785156 0.53125 8.921875 0.53125 C 7.992188 0.53125 7.132812 0.300781 6.34375 -0.15625 C 5.550781 -0.625 4.882812 -1.21875 4.34375 -1.9375 C 3.8125 -2.65625 3.382812 -3.476562 3.0625 -4.40625 C 2.738281 -5.34375 2.578125 -6.238281 2.578125 -7.09375 C 2.578125 -8.238281 2.6875 -9.1875 2.90625 -9.9375 C 3.125 -10.695312 3.410156 -11.507812 3.765625 -12.375 L 4.296875 -13.984375 C 4.660156 -14.847656 5.109375 -15.957031 5.640625 -17.3125 C 6.179688 -18.675781 6.453125 -19.859375 6.453125 -20.859375 C 6.453125 -21.367188 6.34375 -22.035156 6.125 -22.859375 C 5.914062 -23.679688 5.628906 -24.628906 5.265625 -25.703125 Z M 4.84375 -27.109375 "></path></g></g></g><g fill="#ffffff" fill-opacity="1"><g transform="translate(108.602781, 61.340935)"><g><path d="M 5.59375 -27.109375 C 6.882812 -26.242188 7.957031 -25.054688 8.8125 -23.546875 C 9.675781 -22.046875 10.109375 -20.539062 10.109375 -19.03125 C 10.109375 -18.03125 9.960938 -16.957031 9.671875 -15.8125 C 9.390625 -14.664062 9 -13.335938 8.5 -11.828125 C 8.132812 -10.828125 7.804688 -9.820312 7.515625 -8.8125 C 7.234375 -7.8125 7.09375 -6.914062 7.09375 -6.125 C 7.09375 -5.050781 7.46875 -4.332031 8.21875 -3.96875 C 8.976562 -3.613281 9.894531 -3.4375 10.96875 -3.4375 C 12.625 -3.4375 14.164062 -3.972656 15.59375 -5.046875 C 17.03125 -6.128906 18.144531 -7.28125 18.9375 -8.5 C 20.007812 -10.144531 20.867188 -12.003906 21.515625 -14.078125 C 22.160156 -16.160156 22.585938 -19.210938 22.796875 -23.234375 L 22.796875 -23.453125 L 26.890625 -23.453125 C 26.742188 -21.515625 26.5625 -19.703125 26.34375 -18.015625 C 26.132812 -16.328125 25.90625 -14.640625 25.65625 -12.953125 C 25.40625 -11.273438 25.082031 -9.539062 24.6875 -7.75 C 24.289062 -5.957031 23.84375 -3.984375 23.34375 -1.828125 C 22.550781 1.179688 21.6875 4.117188 20.75 6.984375 C 19.820312 9.859375 18.820312 12.53125 17.75 15 C 16.675781 17.476562 15.546875 19.628906 14.359375 21.453125 C 13.171875 23.285156 12.003906 24.664062 10.859375 25.59375 C 9.566406 26.601562 8.347656 27.25 7.203125 27.53125 C 6.054688 27.820312 4.441406 27.929688 2.359375 27.859375 C 1.929688 27.859375 1.320312 27.835938 0.53125 27.796875 C -0.25 27.765625 -1.015625 27.660156 -1.765625 27.484375 C -2.523438 27.304688 -3.171875 27.019531 -3.703125 26.625 C -4.242188 26.226562 -4.515625 25.632812 -4.515625 24.84375 C -4.515625 24.34375 -4.265625 23.585938 -3.765625 22.578125 C -3.265625 21.578125 -2.671875 20.59375 -1.984375 19.625 C -1.304688 18.65625 -0.628906 17.8125 0.046875 17.09375 C 0.734375 16.382812 1.21875 16.03125 1.5 16.03125 C 1.71875 16.03125 1.828125 16.132812 1.828125 16.34375 C 1.828125 16.488281 1.578125 16.921875 1.078125 17.640625 C 0.710938 18.140625 0.316406 18.75 -0.109375 19.46875 C -0.535156 20.1875 -0.75 20.941406 -0.75 21.734375 C -0.75 22.441406 -0.410156 23.007812 0.265625 23.4375 C 0.953125 23.875 1.722656 24.195312 2.578125 24.40625 C 3.441406 24.625 4.320312 24.75 5.21875 24.78125 C 6.113281 24.820312 6.773438 24.84375 7.203125 24.84375 C 7.921875 24.84375 8.617188 24.679688 9.296875 24.359375 C 9.984375 24.035156 10.722656 23.015625 11.515625 21.296875 C 12.085938 20.078125 12.75 18.460938 13.5 16.453125 C 14.25 14.453125 15.035156 12.195312 15.859375 9.6875 C 16.691406 7.175781 17.484375 4.503906 18.234375 1.671875 C 18.984375 -1.160156 19.679688 -4.046875 20.328125 -6.984375 L 20.109375 -7.203125 C 18.035156 -4.984375 16.207031 -3.191406 14.625 -1.828125 C 13.050781 -0.460938 11.222656 0.21875 9.140625 0.21875 C 7.273438 0.21875 5.769531 -0.300781 4.625 -1.34375 C 3.476562 -2.382812 2.90625 -3.910156 2.90625 -5.921875 C 2.90625 -8.066406 3.726562 -11.039062 5.375 -14.84375 C 5.8125 -15.914062 6.222656 -16.972656 6.609375 -18.015625 C 7.003906 -19.054688 7.203125 -20.003906 7.203125 -20.859375 C 7.203125 -21.441406 7.078125 -22.195312 6.828125 -23.125 C 6.578125 -24.0625 6.273438 -25.03125 5.921875 -26.03125 Z M 5.59375 -27.109375 "></path></g></g></g><g fill="#ffffff" fill-opacity="1"><g transform="translate(138.718159, 61.340935)"><g><path d="M 8.0625 -26.25 C 8.425781 -27.96875 8.894531 -29.988281 9.46875 -32.3125 C 10.039062 -34.644531 10.703125 -37.082031 11.453125 -39.625 C 12.203125 -42.175781 13.078125 -44.671875 14.078125 -47.109375 C 15.085938 -49.546875 16.203125 -51.75 17.421875 -53.71875 C 18.640625 -55.695312 19.96875 -57.273438 21.40625 -58.453125 C 22.84375 -59.640625 24.421875 -60.234375 26.140625 -60.234375 C 29.648438 -60.234375 31.40625 -58.582031 31.40625 -55.28125 C 31.40625 -53.28125 30.882812 -51.507812 29.84375 -49.96875 C 28.800781 -48.425781 27.78125 -47.113281 26.78125 -46.03125 L 26.140625 -45.28125 C 25.640625 -44.707031 25.242188 -44.296875 24.953125 -44.046875 C 24.671875 -43.796875 24.347656 -43.5625 23.984375 -43.34375 L 23.65625 -43.03125 C 23.300781 -42.8125 23 -42.613281 22.75 -42.4375 C 22.5 -42.257812 22.300781 -42.171875 22.15625 -42.171875 C 21.726562 -42.171875 21.515625 -42.347656 21.515625 -42.703125 C 21.515625 -42.984375 22.015625 -43.554688 23.015625 -44.421875 C 24.023438 -45.359375 25.101562 -46.628906 26.25 -48.234375 C 27.394531 -49.847656 27.96875 -51.875 27.96875 -54.3125 C 27.96875 -56.6875 26.960938 -57.875 24.953125 -57.875 C 23.515625 -57.875 22.296875 -57.207031 21.296875 -55.875 C 20.296875 -54.550781 19.378906 -52.757812 18.546875 -50.5 C 17.722656 -48.238281 16.988281 -45.601562 16.34375 -42.59375 C 15.695312 -39.582031 15.019531 -36.390625 14.3125 -33.015625 C 13.019531 -26.566406 11.632812 -21.082031 10.15625 -16.5625 C 8.6875 -12.039062 6.878906 -7.847656 4.734375 -3.984375 L 13.765625 -3.984375 C 15.347656 -3.984375 16.65625 -4.125 17.6875 -4.40625 C 18.726562 -4.695312 19.785156 -5.128906 20.859375 -5.703125 L 21.078125 -5.484375 C 19.503906 -3.617188 17.960938 -2.238281 16.453125 -1.34375 C 14.953125 -0.445312 13.269531 0 11.40625 0 L 0.53125 0 L 1.609375 -2.6875 L 6.984375 -20.96875 Z M 8.0625 -26.25 "></path></g></g></g><g fill="#ffffff" fill-opacity="1"><g transform="translate(160.229149, 61.340935)"><g><path d="M 6.984375 -23.234375 C 6.984375 -24.742188 7.378906 -26.035156 8.171875 -27.109375 C 8.960938 -28.179688 10.003906 -29.039062 11.296875 -29.6875 C 12.585938 -30.332031 14.019531 -30.816406 15.59375 -31.140625 C 17.175781 -31.460938 18.71875 -31.625 20.21875 -31.625 C 21.082031 -31.625 22.191406 -31.550781 23.546875 -31.40625 C 24.910156 -31.257812 26.238281 -30.972656 27.53125 -30.546875 C 28.820312 -30.117188 29.953125 -29.523438 30.921875 -28.765625 C 31.890625 -28.015625 32.375 -27.066406 32.375 -25.921875 C 32.375 -24.484375 31.90625 -23.15625 30.96875 -21.9375 C 30.039062 -20.71875 28.894531 -19.625 27.53125 -18.65625 C 26.175781 -17.6875 24.691406 -16.828125 23.078125 -16.078125 C 21.460938 -15.328125 19.972656 -14.738281 18.609375 -14.3125 L 18.28125 -14.203125 L 18.28125 -13.984375 C 19.363281 -13.765625 20.476562 -13.457031 21.625 -13.0625 C 22.769531 -12.675781 23.828125 -12.160156 24.796875 -11.515625 C 25.765625 -10.867188 26.550781 -10.097656 27.15625 -9.203125 C 27.769531 -8.304688 28.078125 -7.210938 28.078125 -5.921875 C 28.078125 -4.265625 27.554688 -2.484375 26.515625 -0.578125 C 25.472656 1.316406 23.859375 3.085938 21.671875 4.734375 C 19.484375 6.378906 16.703125 7.757812 13.328125 8.875 C 9.960938 9.988281 5.953125 10.546875 1.296875 10.546875 L -3.125 10.21875 C -2.550781 9.21875 -1.941406 8.335938 -1.296875 7.578125 C -0.648438 6.828125 0.0664062 6.203125 0.859375 5.703125 C 3.941406 5.984375 6.195312 6.175781 7.625 6.28125 C 9.0625 6.394531 10.285156 6.453125 11.296875 6.453125 C 13.085938 6.453125 14.769531 6.164062 16.34375 5.59375 C 17.925781 5.019531 19.289062 4.25 20.4375 3.28125 C 21.582031 2.3125 22.476562 1.21875 23.125 0 C 23.769531 -1.21875 24.09375 -2.472656 24.09375 -3.765625 C 24.09375 -5.054688 23.769531 -6.128906 23.125 -6.984375 C 22.476562 -7.847656 21.617188 -8.515625 20.546875 -8.984375 C 19.472656 -9.453125 18.179688 -9.773438 16.671875 -9.953125 C 15.160156 -10.128906 13.546875 -10.21875 11.828125 -10.21875 L 5.703125 -9.890625 C 6.054688 -10.753906 6.445312 -11.523438 6.875 -12.203125 C 7.3125 -12.890625 7.851562 -13.519531 8.5 -14.09375 C 10.21875 -14.238281 12.132812 -14.5625 14.25 -15.0625 C 16.363281 -15.5625 18.367188 -16.273438 20.265625 -17.203125 C 22.171875 -18.140625 23.769531 -19.289062 25.0625 -20.65625 C 26.351562 -22.019531 27 -23.632812 27 -25.5 C 27 -27.144531 26.332031 -28.269531 25 -28.875 C 23.675781 -29.488281 22.296875 -29.796875 20.859375 -29.796875 C 18.285156 -29.796875 16.082031 -29.289062 14.25 -28.28125 C 12.425781 -27.28125 11.515625 -25.738281 11.515625 -23.65625 L 11.71875 -21.734375 C 11.070312 -21.296875 10.425781 -20.953125 9.78125 -20.703125 C 9.132812 -20.453125 8.492188 -20.21875 7.859375 -20 L 7.3125 -19.796875 Z M 6.984375 -23.234375 "></path></g></g></g><g fill="#ffffff" fill-opacity="1"><g transform="translate(196.797828, 61.340935)"><g><path d="M 8.0625 -22.375 C 7.988281 -23.375 8.164062 -24.445312 8.59375 -25.59375 C 9.03125 -26.75 9.800781 -27.789062 10.90625 -28.71875 C 12.019531 -29.65625 13.472656 -30.425781 15.265625 -31.03125 C 17.066406 -31.644531 19.328125 -31.953125 22.046875 -31.953125 C 23.054688 -31.953125 24.132812 -31.820312 25.28125 -31.5625 C 26.425781 -31.3125 27.484375 -30.914062 28.453125 -30.375 C 29.421875 -29.84375 30.207031 -29.164062 30.8125 -28.34375 C 31.425781 -27.519531 31.734375 -26.535156 31.734375 -25.390625 C 31.734375 -23.953125 31.375 -22.675781 30.65625 -21.5625 C 29.9375 -20.457031 29.039062 -19.4375 27.96875 -18.5 C 26.894531 -17.570312 25.75 -16.75 24.53125 -16.03125 C 23.3125 -15.3125 22.195312 -14.664062 21.1875 -14.09375 C 18.320312 -12.507812 15.6875 -10.984375 13.28125 -9.515625 C 10.882812 -8.046875 8.859375 -6.269531 7.203125 -4.1875 L 6.78125 -3.765625 L 16.03125 -3.765625 C 19.6875 -3.765625 22.570312 -3.960938 24.6875 -4.359375 C 26.800781 -4.753906 28.644531 -5.238281 30.21875 -5.8125 L 30.4375 -5.59375 C 29.144531 -4.375 28 -3.40625 27 -2.6875 C 26 -1.96875 24.992188 -1.410156 23.984375 -1.015625 C 22.984375 -0.628906 21.90625 -0.363281 20.75 -0.21875 C 19.601562 -0.0703125 18.171875 0 16.453125 0 L 7.421875 0 L 2.265625 -0.21875 C 4.128906 -3.300781 6.367188 -6.023438 8.984375 -8.390625 C 11.597656 -10.753906 14.269531 -12.976562 17 -15.0625 C 18.144531 -15.914062 19.363281 -16.84375 20.65625 -17.84375 C 21.945312 -18.851562 23.109375 -19.859375 24.140625 -20.859375 C 25.179688 -21.867188 26.039062 -22.875 26.71875 -23.875 C 27.40625 -24.882812 27.75 -25.851562 27.75 -26.78125 C 27.75 -27.5 27.515625 -28.070312 27.046875 -28.5 C 26.585938 -28.9375 26.035156 -29.28125 25.390625 -29.53125 C 24.742188 -29.78125 24.0625 -29.941406 23.34375 -30.015625 C 22.625 -30.085938 22.015625 -30.125 21.515625 -30.125 C 20.441406 -30.125 19.363281 -30.015625 18.28125 -29.796875 C 17.207031 -29.578125 16.257812 -29.21875 15.4375 -28.71875 C 14.613281 -28.21875 13.929688 -27.609375 13.390625 -26.890625 C 12.847656 -26.171875 12.578125 -25.3125 12.578125 -24.3125 L 12.796875 -21.734375 C 12.222656 -21.296875 11.578125 -20.914062 10.859375 -20.59375 C 10.140625 -20.269531 9.28125 -19.929688 8.28125 -19.578125 Z M 8.0625 -22.375 "></path></g></g></g><g fill="#ffffff" fill-opacity="1"><g transform="translate(231.215408, 61.340935)"><g><path d="M 19.796875 -20.65625 L 19.140625 -20.21875 C 17.921875 -19.570312 16.648438 -18.800781 15.328125 -17.90625 C 14.003906 -17.007812 12.765625 -16.023438 11.609375 -14.953125 C 10.460938 -13.878906 9.515625 -12.675781 8.765625 -11.34375 C 8.015625 -10.019531 7.640625 -8.566406 7.640625 -6.984375 C 7.640625 -5.410156 8.25 -4.441406 9.46875 -4.078125 C 10.6875 -3.722656 12.691406 -3.546875 15.484375 -3.546875 L 18.828125 -3.546875 C 20.828125 -3.546875 22.398438 -3.722656 23.546875 -4.078125 C 24.703125 -4.441406 25.566406 -4.890625 26.140625 -5.421875 C 26.710938 -5.960938 27.085938 -6.519531 27.265625 -7.09375 C 27.441406 -7.664062 27.53125 -8.207031 27.53125 -8.71875 C 27.53125 -9.863281 27.316406 -10.953125 26.890625 -11.984375 C 26.460938 -13.023438 25.90625 -14.007812 25.21875 -14.9375 C 24.539062 -15.875 23.789062 -16.753906 22.96875 -17.578125 C 22.144531 -18.410156 21.335938 -19.1875 20.546875 -19.90625 Z M 17.53125 -38.71875 C 19.820312 -40.082031 22.1875 -41.285156 24.625 -42.328125 C 27.0625 -43.367188 29.320312 -43.890625 31.40625 -43.890625 C 33.050781 -43.890625 34.210938 -43.457031 34.890625 -42.59375 C 35.578125 -41.726562 35.921875 -40.65625 35.921875 -39.375 L 35.703125 -36.46875 C 35.640625 -36.320312 35.191406 -35.78125 34.359375 -34.84375 C 33.535156 -33.914062 32.585938 -33.128906 31.515625 -32.484375 L 31.734375 -37.96875 C 31.734375 -39.039062 31.550781 -39.914062 31.1875 -40.59375 C 30.832031 -41.28125 30.15625 -41.625 29.15625 -41.625 C 28.289062 -41.625 27.101562 -41.375 25.59375 -40.875 C 24.09375 -40.375 22.609375 -39.707031 21.140625 -38.875 C 19.671875 -38.050781 18.378906 -37.140625 17.265625 -36.140625 C 16.148438 -35.140625 15.59375 -34.171875 15.59375 -33.234375 C 15.59375 -32.085938 16.921875 -30.222656 19.578125 -27.640625 L 22.90625 -24.3125 L 25.8125 -25.8125 C 26.101562 -25.957031 26.460938 -26.15625 26.890625 -26.40625 C 27.316406 -26.65625 27.765625 -26.882812 28.234375 -27.09375 C 28.703125 -27.3125 29.113281 -27.507812 29.46875 -27.6875 C 29.832031 -27.875 30.082031 -27.96875 30.21875 -27.96875 C 30.726562 -27.96875 30.984375 -27.71875 30.984375 -27.21875 C 30.984375 -26.925781 30.851562 -26.722656 30.59375 -26.609375 C 30.34375 -26.503906 30.148438 -26.382812 30.015625 -26.25 L 24.09375 -22.90625 L 24.53125 -22.484375 C 25.957031 -20.972656 27.296875 -19.359375 28.546875 -17.640625 C 29.804688 -15.921875 30.4375 -13.910156 30.4375 -11.609375 C 30.4375 -9.960938 30.039062 -8.367188 29.25 -6.828125 C 28.46875 -5.285156 27.21875 -3.90625 25.5 -2.6875 C 23.84375 -1.539062 22.117188 -0.769531 20.328125 -0.375 C 18.535156 0.0195312 16.457031 0.21875 14.09375 0.21875 L 10.4375 0.21875 C 8.28125 0.21875 6.46875 -0.0664062 5 -0.640625 C 3.53125 -1.210938 2.796875 -2.503906 2.796875 -4.515625 C 2.796875 -6.523438 3.242188 -8.351562 4.140625 -10 C 5.035156 -11.65625 6.144531 -13.144531 7.46875 -14.46875 C 8.800781 -15.789062 10.238281 -16.953125 11.78125 -17.953125 C 13.320312 -18.960938 14.703125 -19.828125 15.921875 -20.546875 L 18.390625 -21.9375 L 15.921875 -24.421875 C 14.910156 -25.421875 13.921875 -26.53125 12.953125 -27.75 C 11.992188 -28.96875 11.515625 -30.296875 11.515625 -31.734375 C 11.515625 -33.378906 12.15625 -34.757812 13.4375 -35.875 C 14.726562 -36.988281 16.09375 -37.9375 17.53125 -38.71875 Z M 17.53125 -38.71875 "></path></g></g></g></g></g></svg></svg></g></g></svg></g></svg>