<svg xmlns="http://www.w3.org/2000/svg" version="1.1" xmlns:xlink="http://www.w3.org/1999/xlink" width="1000" height="1000"><style>
    #light-icon {
      display: inline;
    }
    #dark-icon {
      display: none;
    }

    @media (prefers-color-scheme: dark) {
      #light-icon {
        display: none;
      }
      #dark-icon {
        display: inline;
      }
    }
  </style><g id="light-icon"><svg xmlns="http://www.w3.org/2000/svg" version="1.1" xmlns:xlink="http://www.w3.org/1999/xlink" width="1000" height="1000"><g><g transform="matrix(2,0,0,2,0,0)"><svg xmlns="http://www.w3.org/2000/svg" version="1.1" xmlns:xlink="http://www.w3.org/1999/xlink" width="500" height="500"><svg xmlns="http://www.w3.org/2000/svg" xmlns:xlink="http://www.w3.org/1999/xlink" width="500" zoomAndPan="magnify" viewBox="0 0 375 374.999991" height="500" preserveAspectRatio="xMidYMid meet" version="1.0"><defs><g></g><clipPath id="89c279c3fc"><rect x="0" width="277" y="0" height="334"></rect></clipPath></defs><g transform="matrix(1, 0, 0, 1, 53, 41)"><g clip-path="url(#89c279c3fc)"><g fill="#000000" fill-opacity="1"><g transform="translate(4.455728, 222.941363)"><g><path d="M 118.21875 -7.140625 L 118.21875 -7.640625 C 118.050781 -7.640625 117.925781 -7.675781 117.84375 -7.75 C 117.757812 -7.832031 117.632812 -7.875 117.46875 -7.875 C 117.3125 -7.875 117.191406 -7.832031 117.109375 -7.75 C 117.023438 -7.675781 116.984375 -7.640625 116.984375 -7.640625 C 116.816406 -7.140625 117.0625 -6.890625 117.71875 -6.890625 C 117.882812 -6.890625 118.007812 -6.929688 118.09375 -7.015625 C 118.175781 -7.097656 118.21875 -7.140625 118.21875 -7.140625 Z M 132.5 -16.25 C 132.820312 -16.25 133.226562 -16.289062 133.71875 -16.375 C 134.21875 -16.457031 134.550781 -16.742188 134.71875 -17.234375 C 133.40625 -17.234375 132.664062 -16.90625 132.5 -16.25 Z M 134.46875 -17.234375 C 135.289062 -17.234375 135.703125 -17.726562 135.703125 -18.71875 C 135.535156 -18.550781 135.328125 -18.34375 135.078125 -18.09375 C 134.835938 -17.851562 134.632812 -17.566406 134.46875 -17.234375 Z M 135.703125 -18.71875 C 136.359375 -18.71875 136.6875 -19.046875 136.6875 -19.703125 C 136.195312 -19.535156 135.867188 -19.207031 135.703125 -18.71875 Z M 136.6875 -19.453125 C 137.34375 -19.785156 137.671875 -20.195312 137.671875 -20.6875 C 137.015625 -20.351562 136.6875 -19.941406 136.6875 -19.453125 Z M 137.671875 -20.4375 C 138.160156 -20.601562 138.488281 -21.015625 138.65625 -21.671875 C 138 -21.671875 137.671875 -21.257812 137.671875 -20.4375 Z M 141.125 -23.640625 C 139.644531 -23.316406 138.820312 -22.660156 138.65625 -21.671875 C 140.300781 -21.671875 141.125 -22.328125 141.125 -23.640625 Z M 141.125 -23.640625 L 140.875 -23.640625 C 140.875 -23.640625 140.914062 -23.640625 141 -23.640625 C 141.082031 -23.640625 141.125 -23.640625 141.125 -23.640625 Z M 154.171875 -39.65625 C 154.335938 -39.976562 154.421875 -40.34375 154.421875 -40.75 C 154.421875 -41.164062 154.503906 -41.457031 154.671875 -41.625 C 151.378906 -39.488281 149.242188 -36.285156 148.265625 -32.015625 C 149.742188 -33.003906 150.8125 -34.234375 151.46875 -35.703125 C 152.125 -37.179688 153.023438 -38.5 154.171875 -39.65625 Z M 160.078125 -54.421875 C 160.578125 -53.609375 160.988281 -53.203125 161.3125 -53.203125 C 162.300781 -54.671875 162.796875 -55.816406 162.796875 -56.640625 C 162.796875 -56.640625 162.796875 -56.679688 162.796875 -56.765625 C 162.796875 -56.847656 162.710938 -56.890625 162.546875 -56.890625 C 162.210938 -56.890625 161.757812 -56.601562 161.1875 -56.03125 C 160.613281 -55.457031 160.242188 -54.921875 160.078125 -54.421875 Z M 168.453125 -76.84375 C 168.285156 -77.007812 168.242188 -77.171875 168.328125 -77.328125 C 168.410156 -77.492188 168.289062 -77.414062 167.96875 -77.09375 C 168.125 -76.925781 168.285156 -76.84375 168.453125 -76.84375 Z M 159.84375 -46.046875 L 160.078125 -45.5625 C 159.921875 -45.226562 159.800781 -44.894531 159.71875 -44.5625 C 159.632812 -44.238281 159.34375 -44 158.84375 -43.84375 C 158.351562 -41.863281 157.695312 -40.050781 156.875 -38.40625 C 156.0625 -36.769531 154.75 -35.296875 152.9375 -33.984375 C 152.445312 -33.492188 151.992188 -33.039062 151.578125 -32.625 C 151.171875 -32.21875 150.804688 -31.769531 150.484375 -31.28125 C 149.660156 -29.3125 148.179688 -27.832031 146.046875 -26.84375 C 146.046875 -26.519531 146.085938 -26.234375 146.171875 -25.984375 C 146.253906 -25.734375 146.128906 -25.445312 145.796875 -25.125 L 144.5625 -25.125 C 144.40625 -25.125 144.40625 -25.367188 144.5625 -25.859375 C 144.894531 -26.191406 145.179688 -26.4375 145.421875 -26.59375 C 145.671875 -26.757812 145.960938 -26.925781 146.296875 -27.09375 C 146.128906 -27.75 146.535156 -28.488281 147.515625 -29.3125 C 147.847656 -29.96875 148.09375 -30.5 148.25 -30.90625 C 148.414062 -31.320312 148.421875 -31.691406 148.265625 -32.015625 C 147.273438 -31.691406 146.453125 -31.078125 145.796875 -30.171875 C 145.140625 -29.265625 144.398438 -28.398438 143.578125 -27.578125 C 142.921875 -27.085938 142.382812 -26.515625 141.96875 -25.859375 C 141.5625 -25.203125 141.195312 -24.460938 140.875 -23.640625 L 141.125 -23.640625 C 141.445312 -23.640625 141.691406 -23.554688 141.859375 -23.390625 C 142.679688 -23.066406 142.925781 -22.660156 142.59375 -22.171875 C 141.9375 -21.347656 141.195312 -20.523438 140.375 -19.703125 C 139.5625 -18.878906 138.742188 -17.976562 137.921875 -17 C 136.929688 -16.007812 135.78125 -15.269531 134.46875 -14.78125 C 134.300781 -14.613281 134.050781 -14.53125 133.71875 -14.53125 C 133.394531 -14.53125 133.148438 -14.53125 132.984375 -14.53125 C 132.660156 -14.851562 132.5 -15.179688 132.5 -15.515625 C 132.5 -15.847656 132.5 -16.09375 132.5 -16.25 C 132.007812 -16.09375 131.472656 -15.890625 130.890625 -15.640625 C 130.316406 -15.390625 129.785156 -15.101562 129.296875 -14.78125 C 128.804688 -14.445312 129.050781 -13.707031 130.03125 -12.5625 C 129.539062 -11.414062 128.0625 -10.019531 125.59375 -8.375 C 123.132812 -6.726562 121.332031 -5.828125 120.1875 -5.671875 C 119.695312 -5.671875 119.125 -5.335938 118.46875 -4.671875 C 118.132812 -4.515625 117.84375 -4.351562 117.59375 -4.1875 C 117.351562 -4.019531 116.984375 -3.9375 116.484375 -3.9375 C 114.679688 -3.445312 112.914062 -2.75 111.1875 -1.84375 C 109.46875 -0.945312 107.707031 -0.0859375 105.90625 0.734375 C 105.25 0.898438 104.59375 1.101562 103.9375 1.34375 C 103.28125 1.59375 102.539062 1.71875 101.71875 1.71875 C 100.40625 1.71875 99.171875 1.390625 98.015625 0.734375 C 97.359375 0.578125 97.03125 1.070312 97.03125 2.21875 C 96.050781 2.382812 95.066406 2.753906 94.078125 3.328125 C 93.097656 3.898438 92.113281 4.101562 91.125 3.9375 C 90.300781 3.9375 89.601562 4.097656 89.03125 4.421875 C 88.457031 4.753906 87.84375 5.085938 87.1875 5.421875 C 85.539062 6.398438 83.898438 6.890625 82.265625 6.890625 C 81.273438 6.890625 80.613281 6.8125 80.28125 6.65625 C 79.789062 6.488281 79.054688 6.40625 78.078125 6.40625 C 77.421875 6.40625 76.722656 6.445312 75.984375 6.53125 C 75.242188 6.613281 74.546875 6.65625 73.890625 6.65625 C 73.722656 6.65625 73.597656 6.65625 73.515625 6.65625 C 73.429688 6.65625 73.304688 6.65625 73.140625 6.65625 C 71.992188 6.65625 70.765625 6.65625 69.453125 6.65625 C 68.140625 6.65625 66.828125 6.734375 65.515625 6.890625 C 64.859375 7.222656 64.445312 7.390625 64.28125 7.390625 C 63.945312 7.390625 63.453125 7.222656 62.796875 6.890625 L 59.59375 6.890625 C 57.625 7.390625 56.640625 8.625 56.640625 10.59375 C 56.472656 11.738281 56.222656 12.800781 55.890625 13.78125 C 55.566406 14.769531 55.160156 15.675781 54.671875 16.5 C 54.503906 16.832031 54.175781 17 53.6875 17 C 53.195312 17 52.867188 16.914062 52.703125 16.75 C 52.535156 16.414062 52.328125 16.003906 52.078125 15.515625 C 51.835938 15.023438 51.472656 14.78125 50.984375 14.78125 C 50.648438 14.78125 50.398438 14.859375 50.234375 15.015625 C 48.765625 14.035156 48.191406 12.644531 48.515625 10.84375 C 48.515625 10.675781 48.554688 10.46875 48.640625 10.21875 C 48.722656 9.96875 48.765625 9.765625 48.765625 9.609375 C 48.429688 8.617188 48.1875 8.125 48.03125 8.125 C 47.375 7.957031 46.59375 7.671875 45.6875 7.265625 C 44.78125 6.859375 43.914062 6.65625 43.09375 6.65625 C 42.9375 6.65625 42.816406 6.65625 42.734375 6.65625 C 42.648438 6.65625 42.523438 6.65625 42.359375 6.65625 C 41.210938 6.65625 40.019531 6.488281 38.78125 6.15625 C 37.550781 5.832031 36.28125 5.671875 34.96875 5.671875 C 34.800781 5.671875 34.675781 5.671875 34.59375 5.671875 C 34.519531 5.671875 34.398438 5.671875 34.234375 5.671875 C 32.921875 5.671875 31.6875 5.503906 30.53125 5.171875 C 29.382812 4.835938 28.15625 4.671875 26.84375 4.671875 C 24.707031 3.691406 22.40625 2.832031 19.9375 2.09375 C 17.476562 1.351562 15.265625 0.410156 13.296875 -0.734375 C 12.472656 -1.234375 11.734375 -1.644531 11.078125 -1.96875 C 10.421875 -2.300781 9.847656 -2.628906 9.359375 -2.953125 C 8.210938 -3.773438 7.019531 -4.597656 5.78125 -5.421875 C 4.550781 -6.242188 3.523438 -7.144531 2.703125 -8.125 C 1.066406 -9.9375 0.0859375 -11.128906 -0.234375 -11.703125 C -0.566406 -12.273438 -0.734375 -13.789062 -0.734375 -16.25 C 0.578125 -15.757812 1.640625 -14.976562 2.453125 -13.90625 C 3.273438 -12.84375 4.265625 -12.066406 5.421875 -11.578125 C 7.390625 -10.585938 9.273438 -9.4375 11.078125 -8.125 C 12.890625 -6.8125 14.863281 -5.910156 17 -5.421875 C 17.320312 -5.253906 17.6875 -5.085938 18.09375 -4.921875 C 18.507812 -4.753906 18.800781 -4.59375 18.96875 -4.4375 C 19.625 -3.78125 20.726562 -3.242188 22.28125 -2.828125 C 23.84375 -2.421875 25.117188 -2.21875 26.109375 -2.21875 C 28.734375 -1.5625 30.820312 -1.066406 32.375 -0.734375 C 33.9375 -0.410156 36.035156 -0.25 38.671875 -0.25 C 39.484375 -0.25 40.175781 -0.207031 40.75 -0.125 C 41.332031 -0.0390625 41.953125 0.164062 42.609375 0.5 L 44.078125 0.5 C 44.410156 0.5 44.695312 0.5 44.9375 0.5 C 45.1875 0.5 45.394531 0.5 45.5625 0.5 C 48.675781 0.5 50.316406 0.210938 50.484375 -0.359375 C 50.648438 -0.941406 51.226562 -2.710938 52.21875 -5.671875 C 52.707031 -7.304688 52.992188 -8.941406 53.078125 -10.578125 C 53.160156 -12.222656 53.53125 -13.867188 54.1875 -15.515625 C 55 -18.304688 55.691406 -21.21875 56.265625 -24.25 C 56.847656 -27.289062 57.550781 -30.207031 58.375 -33 C 58.375 -34.96875 58.703125 -36.8125 59.359375 -38.53125 C 60.015625 -40.257812 60.421875 -42.03125 60.578125 -43.84375 C 60.910156 -45.644531 61.40625 -47.445312 62.0625 -49.25 C 62.71875 -51.0625 63.128906 -52.867188 63.296875 -54.671875 C 64.117188 -58.609375 65.0625 -62.46875 66.125 -66.25 C 67.195312 -70.03125 68.140625 -73.890625 68.953125 -77.828125 C 69.609375 -80.117188 70.265625 -82.457031 70.921875 -84.84375 C 71.585938 -87.226562 72.164062 -89.484375 72.65625 -91.609375 C 73.476562 -94.398438 74.253906 -97.273438 74.984375 -100.234375 C 75.722656 -103.191406 76.175781 -106.066406 76.34375 -108.859375 C 77.164062 -110.492188 77.535156 -112.171875 77.453125 -113.890625 C 77.367188 -115.617188 77.65625 -117.222656 78.3125 -118.703125 C 78.3125 -120.179688 78.554688 -121.703125 79.046875 -123.265625 C 79.546875 -124.828125 79.878906 -126.425781 80.046875 -128.0625 C 80.203125 -129.707031 80.363281 -131.304688 80.53125 -132.859375 C 80.695312 -134.421875 80.695312 -136.109375 80.53125 -137.921875 C 80.53125 -139.066406 81.109375 -139.882812 82.265625 -140.375 C 82.421875 -140.539062 82.75 -140.625 83.25 -140.625 C 84.394531 -140.625 85.128906 -140.210938 85.453125 -139.390625 C 86.109375 -138.566406 86.679688 -137.742188 87.171875 -136.921875 C 87.671875 -136.109375 88.003906 -135.046875 88.171875 -133.734375 C 88.171875 -133.078125 88.210938 -132.421875 88.296875 -131.765625 C 88.378906 -131.109375 88.5 -130.453125 88.65625 -129.796875 C 88.820312 -129.628906 88.90625 -129.378906 88.90625 -129.046875 C 88.90625 -128.722656 88.90625 -128.476562 88.90625 -128.3125 C 88.414062 -127.164062 88.171875 -126.054688 88.171875 -124.984375 C 88.171875 -123.921875 88.085938 -122.734375 87.921875 -121.421875 C 87.753906 -118.785156 87.257812 -116.078125 86.4375 -113.296875 C 85.289062 -109.023438 84.222656 -104.671875 83.234375 -100.234375 C 82.253906 -95.804688 81.191406 -91.457031 80.046875 -87.1875 C 79.546875 -84.71875 78.96875 -82.332031 78.3125 -80.03125 C 77.65625 -77.738281 77.082031 -75.441406 76.59375 -73.140625 C 76.101562 -71.503906 75.648438 -69.695312 75.234375 -67.71875 C 74.828125 -65.75 74.457031 -63.78125 74.125 -61.8125 C 73.3125 -59.1875 72.535156 -56.5625 71.796875 -53.9375 C 71.054688 -51.3125 70.273438 -48.679688 69.453125 -46.046875 C 69.285156 -44.898438 69.160156 -43.75 69.078125 -42.59375 C 68.992188 -41.445312 68.707031 -40.382812 68.21875 -39.40625 C 67.238281 -37.269531 66.828125 -35.132812 66.984375 -33 C 66.984375 -32.675781 66.90625 -32.429688 66.75 -32.265625 C 65.757812 -30.128906 65.140625 -27.992188 64.890625 -25.859375 C 64.648438 -23.722656 64.203125 -21.671875 63.546875 -19.703125 C 63.046875 -17.734375 62.585938 -15.765625 62.171875 -13.796875 C 61.765625 -11.828125 61.234375 -9.9375 60.578125 -8.125 C 60.421875 -7.46875 60.34375 -6.8125 60.34375 -6.15625 C 60.34375 -5.5 60.175781 -4.757812 59.84375 -3.9375 C 59.675781 -3.613281 59.59375 -3.125 59.59375 -2.46875 C 59.59375 -1.8125 59.59375 -1.234375 59.59375 -0.734375 C 59.59375 0.242188 60.003906 0.570312 60.828125 0.25 C 61.484375 0.0820312 62.015625 -0.0390625 62.421875 -0.125 C 62.835938 -0.207031 63.210938 -0.25 63.546875 -0.25 C 63.703125 -0.25 63.78125 -0.25 63.78125 -0.25 C 63.78125 -0.25 63.863281 -0.25 64.03125 -0.25 C 64.363281 -0.25 64.648438 -0.25 64.890625 -0.25 C 65.140625 -0.25 65.347656 -0.25 65.515625 -0.25 C 67.804688 -0.25 70.140625 -0.453125 72.515625 -0.859375 C 74.898438 -1.273438 77.160156 -1.5625 79.296875 -1.71875 C 80.453125 -2.050781 81.644531 -2.296875 82.875 -2.453125 C 84.101562 -2.617188 85.289062 -2.785156 86.4375 -2.953125 C 87.101562 -3.117188 88.582031 -3.488281 90.875 -4.0625 C 93.175781 -4.632812 95.722656 -5.289062 98.515625 -6.03125 C 101.304688 -6.769531 103.769531 -7.46875 105.90625 -8.125 C 108.039062 -8.78125 109.351562 -9.273438 109.84375 -9.609375 C 112.144531 -10.921875 114.566406 -12.066406 117.109375 -13.046875 C 119.648438 -14.035156 121.988281 -15.1875 124.125 -16.5 C 126.425781 -17.976562 128.601562 -19.492188 130.65625 -21.046875 C 132.707031 -22.609375 134.800781 -24.210938 136.9375 -25.859375 C 137.425781 -26.191406 137.832031 -26.601562 138.15625 -27.09375 C 138.976562 -28.238281 139.84375 -29.300781 140.75 -30.28125 C 141.65625 -31.269531 142.597656 -32.175781 143.578125 -33 C 144.398438 -33.820312 145.222656 -34.722656 146.046875 -35.703125 C 146.867188 -36.691406 147.609375 -37.679688 148.265625 -38.671875 C 150.066406 -41.617188 151.953125 -45.101562 153.921875 -49.125 C 155.890625 -53.15625 157.570312 -57.300781 158.96875 -61.5625 C 160.363281 -65.832031 161.0625 -69.691406 161.0625 -73.140625 C 161.882812 -76.097656 162.253906 -79.09375 162.171875 -82.125 C 162.085938 -85.164062 162.046875 -88.164062 162.046875 -91.125 C 162.046875 -91.945312 162.046875 -92.765625 162.046875 -93.578125 C 162.046875 -94.398438 161.882812 -95.304688 161.5625 -96.296875 C 161.226562 -96.617188 161.0625 -97.023438 161.0625 -97.515625 C 161.0625 -98.015625 161.0625 -98.429688 161.0625 -98.765625 C 161.0625 -101.054688 160.894531 -103.351562 160.5625 -105.65625 C 160.238281 -107.957031 159.75 -110.171875 159.09375 -112.296875 C 158.769531 -114.109375 158.484375 -115.875 158.234375 -117.59375 C 157.984375 -119.320312 157.613281 -120.925781 157.125 -122.40625 C 154.5 -130.125 150.882812 -138.046875 146.28125 -146.171875 C 141.6875 -154.296875 136.1875 -161.597656 129.78125 -168.078125 C 123.382812 -174.566406 116 -179.046875 107.625 -181.515625 C 105 -182.328125 102.410156 -183.0625 99.859375 -183.71875 C 97.316406 -184.375 94.734375 -184.703125 92.109375 -184.703125 C 91.941406 -184.703125 91.773438 -184.703125 91.609375 -184.703125 C 91.453125 -184.703125 91.289062 -184.703125 91.125 -184.703125 C 89.644531 -184.546875 88.164062 -184.425781 86.6875 -184.34375 C 85.207031 -184.257812 83.8125 -184.21875 82.5 -184.21875 C 81.351562 -184.21875 80.203125 -184.007812 79.046875 -183.59375 C 77.898438 -183.1875 76.671875 -182.984375 75.359375 -182.984375 C 75.359375 -182.984375 75.316406 -182.984375 75.234375 -182.984375 C 75.148438 -182.984375 75.03125 -182.984375 74.875 -182.984375 C 67.15625 -180.679688 60.546875 -177.804688 55.046875 -174.359375 C 49.546875 -170.910156 44.414062 -165.988281 39.65625 -159.59375 C 39.320312 -158.9375 38.910156 -158.238281 38.421875 -157.5 C 37.929688 -156.757812 37.4375 -155.976562 36.9375 -155.15625 C 36.613281 -154.5 35.710938 -154.003906 34.234375 -153.671875 C 34.066406 -153.671875 33.898438 -153.671875 33.734375 -153.671875 C 33.578125 -153.671875 33.414062 -153.671875 33.25 -153.671875 C 31.769531 -153.671875 31.03125 -154.578125 31.03125 -156.390625 C 31.03125 -157.703125 30.945312 -158.929688 30.78125 -160.078125 C 30.613281 -161.234375 30.78125 -162.382812 31.28125 -163.53125 C 31.9375 -164.84375 32.671875 -166.070312 33.484375 -167.21875 C 34.304688 -168.375 35.128906 -169.523438 35.953125 -170.671875 C 36.117188 -170.835938 36.285156 -171 36.453125 -171.15625 C 36.617188 -171.320312 36.78125 -171.488281 36.9375 -171.65625 C 38.582031 -172.644531 39.976562 -173.710938 41.125 -174.859375 C 42.28125 -176.003906 43.515625 -176.988281 44.828125 -177.8125 C 45.804688 -178.300781 46.664062 -178.832031 47.40625 -179.40625 C 48.144531 -179.988281 48.925781 -180.609375 49.75 -181.265625 C 51.550781 -182.742188 53.5625 -183.972656 55.78125 -184.953125 C 58 -185.941406 60.175781 -186.765625 62.3125 -187.421875 C 63.132812 -187.742188 64.078125 -188.109375 65.140625 -188.515625 C 66.210938 -188.929688 67.238281 -189.382812 68.21875 -189.875 C 70.019531 -190.375 71.863281 -190.742188 73.75 -190.984375 C 75.644531 -191.234375 77.578125 -191.441406 79.546875 -191.609375 C 80.367188 -191.773438 81.191406 -191.894531 82.015625 -191.96875 C 82.835938 -192.050781 83.738281 -192.09375 84.71875 -192.09375 C 85.050781 -192.09375 85.460938 -192.09375 85.953125 -192.09375 C 86.441406 -192.09375 86.851562 -192.015625 87.1875 -191.859375 C 87.84375 -191.859375 88.457031 -191.859375 89.03125 -191.859375 C 89.601562 -191.859375 90.21875 -191.859375 90.875 -191.859375 C 91.53125 -191.859375 92.144531 -191.859375 92.71875 -191.859375 C 93.300781 -191.859375 93.921875 -191.773438 94.578125 -191.609375 C 100.160156 -190.953125 105.703125 -189.71875 111.203125 -187.90625 C 116.703125 -186.101562 121.664062 -183.476562 126.09375 -180.03125 C 128.394531 -178.382812 130.648438 -176.660156 132.859375 -174.859375 C 135.078125 -173.054688 136.925781 -171.003906 138.40625 -168.703125 C 138.570312 -168.367188 138.695312 -168.160156 138.78125 -168.078125 C 138.863281 -168.003906 138.90625 -167.882812 138.90625 -167.71875 C 139.726562 -167.0625 140.46875 -166.445312 141.125 -165.875 C 141.78125 -165.300781 142.269531 -164.519531 142.59375 -163.53125 C 142.269531 -162.539062 142.476562 -161.84375 143.21875 -161.4375 C 143.957031 -161.03125 144.40625 -160.414062 144.5625 -159.59375 C 145.0625 -158.9375 145.554688 -158.28125 146.046875 -157.625 C 146.535156 -156.96875 147.023438 -156.144531 147.515625 -155.15625 C 147.847656 -154.5 148.175781 -153.882812 148.5 -153.3125 C 148.832031 -152.738281 149.164062 -152.039062 149.5 -151.21875 C 149.820312 -150.5625 150.144531 -149.984375 150.46875 -149.484375 C 150.800781 -148.992188 151.296875 -148.585938 151.953125 -148.265625 C 152.285156 -148.097656 152.453125 -147.847656 152.453125 -147.515625 C 152.453125 -147.191406 152.53125 -146.863281 152.6875 -146.53125 C 153.1875 -145.382812 153.722656 -144.15625 154.296875 -142.84375 C 154.867188 -141.53125 155.648438 -140.21875 156.640625 -138.90625 C 156.960938 -138.25 157.242188 -137.671875 157.484375 -137.171875 C 157.734375 -136.679688 157.859375 -136.023438 157.859375 -135.203125 C 157.859375 -134.222656 158.269531 -133.484375 159.09375 -132.984375 C 159.914062 -132.328125 160.445312 -131.546875 160.6875 -130.640625 C 160.9375 -129.742188 161.0625 -128.800781 161.0625 -127.8125 C 160.90625 -126.664062 160.988281 -125.515625 161.3125 -124.359375 C 161.644531 -123.210938 162.46875 -122.3125 163.78125 -121.65625 C 164.101562 -121.332031 164.265625 -120.925781 164.265625 -120.4375 C 163.609375 -119.445312 163.441406 -118.5 163.765625 -117.59375 C 164.097656 -116.695312 164.265625 -115.753906 164.265625 -114.765625 C 164.265625 -114.597656 164.550781 -113.40625 165.125 -111.1875 C 165.707031 -108.976562 166.328125 -106.765625 166.984375 -104.546875 C 167.640625 -102.328125 167.96875 -101.054688 167.96875 -100.734375 C 168.289062 -100.078125 168.367188 -99.664062 168.203125 -99.5 C 167.054688 -97.6875 167.054688 -95.71875 168.203125 -93.59375 C 168.535156 -93.257812 168.660156 -92.84375 168.578125 -92.34375 C 168.492188 -91.851562 168.453125 -91.28125 168.453125 -90.625 C 168.617188 -89.8125 168.742188 -88.992188 168.828125 -88.171875 C 168.910156 -87.347656 169.03125 -86.441406 169.1875 -85.453125 C 169.6875 -82.992188 169.6875 -80.207031 169.1875 -77.09375 C 169.1875 -76.925781 169.101562 -76.84375 168.9375 -76.84375 C 168.78125 -76.84375 168.617188 -76.757812 168.453125 -76.59375 L 168.453125 -71.921875 C 168.453125 -71.585938 168.492188 -71.210938 168.578125 -70.796875 C 168.660156 -70.390625 168.535156 -70.101562 168.203125 -69.9375 C 167.222656 -69.28125 166.851562 -68.457031 167.09375 -67.46875 C 167.34375 -66.488281 167.382812 -65.585938 167.21875 -64.765625 C 167.0625 -62.796875 166.613281 -60.828125 165.875 -58.859375 C 165.132812 -56.890625 164.269531 -55.003906 163.28125 -53.203125 C 163.113281 -52.867188 162.863281 -52.492188 162.53125 -52.078125 C 162.207031 -51.671875 161.640625 -51.382812 160.828125 -51.21875 C 160.660156 -51.21875 160.453125 -51.34375 160.203125 -51.59375 C 159.960938 -51.84375 159.675781 -51.96875 159.34375 -51.96875 C 158.6875 -51.96875 158.273438 -51.429688 158.109375 -50.359375 C 157.941406 -49.296875 157.859375 -48.519531 157.859375 -48.03125 C 156.054688 -46.21875 154.910156 -44.082031 154.421875 -41.625 C 154.742188 -41.945312 155.148438 -42.234375 155.640625 -42.484375 C 156.140625 -42.734375 156.472656 -42.9375 156.640625 -43.09375 C 157.128906 -43.75 157.457031 -44.078125 157.625 -44.078125 C 158.113281 -44.078125 158.519531 -44 158.84375 -43.84375 C 158.84375 -44.164062 158.84375 -44.53125 158.84375 -44.9375 C 158.84375 -45.351562 159.175781 -45.5625 159.84375 -45.5625 C 159.84375 -45.726562 159.84375 -45.8125 159.84375 -45.8125 C 159.84375 -45.8125 159.84375 -45.890625 159.84375 -46.046875 Z M 162.546875 -59.109375 C 162.710938 -59.273438 162.796875 -59.601562 162.796875 -60.09375 C 162.628906 -60.09375 162.503906 -60.050781 162.421875 -59.96875 C 162.335938 -59.882812 162.296875 -59.84375 162.296875 -59.84375 C 162.296875 -59.675781 162.335938 -59.550781 162.421875 -59.46875 C 162.503906 -59.394531 162.546875 -59.273438 162.546875 -59.109375 Z M 165.75 -82.265625 C 165.75 -82.265625 165.789062 -82.34375 165.875 -82.5 C 165.957031 -82.664062 166 -82.75 166 -82.75 C 166 -83.082031 165.832031 -83.25 165.5 -83.25 C 165.5 -82.914062 165.582031 -82.585938 165.75 -82.265625 Z M -0.734375 -16.25 C -0.898438 -16.414062 -1.023438 -16.5 -1.109375 -16.5 C -1.191406 -16.5 -1.316406 -16.582031 -1.484375 -16.75 C -1.148438 -17.070312 -0.984375 -17.109375 -0.984375 -16.859375 C -0.984375 -16.617188 -0.898438 -16.414062 -0.734375 -16.25 Z M 159.84375 -46.046875 L 160.078125 -45.5625 C 160.078125 -45.882812 160.117188 -46.128906 160.203125 -46.296875 C 160.285156 -46.460938 160.328125 -46.628906 160.328125 -46.796875 C 160.660156 -46.296875 160.5 -46.046875 159.84375 -46.046875 Z M 157.859375 -48.03125 C 158.023438 -48.03125 158.148438 -47.988281 158.234375 -47.90625 C 158.316406 -47.820312 158.441406 -47.78125 158.609375 -47.78125 C 158.273438 -47.445312 158.109375 -47.363281 158.109375 -47.53125 C 158.109375 -47.695312 158.023438 -47.863281 157.859375 -48.03125 Z M 157.859375 -48.03125 "></path></g></g></g><g fill="#000000" fill-opacity="1"><g transform="translate(175.130869, 222.941363)"><g><path d="M 90.875 -31.765625 C 90.875 -32.421875 91.117188 -32.75 91.609375 -32.75 C 91.609375 -32.257812 91.363281 -31.929688 90.875 -31.765625 C 90.707031 -31.273438 90.378906 -30.945312 89.890625 -30.78125 C 89.398438 -30.125 88.945312 -29.507812 88.53125 -28.9375 C 88.125 -28.363281 87.59375 -27.910156 86.9375 -27.578125 C 86.113281 -27.253906 85.617188 -26.765625 85.453125 -26.109375 C 85.296875 -25.453125 85.050781 -24.796875 84.71875 -24.140625 C 84.226562 -23.804688 83.773438 -23.394531 83.359375 -22.90625 C 82.953125 -22.414062 82.585938 -22.003906 82.265625 -21.671875 C 81.765625 -21.347656 81.269531 -21.019531 80.78125 -20.6875 C 80.289062 -20.351562 79.878906 -20.023438 79.546875 -19.703125 C 78.722656 -19.535156 78.1875 -19.082031 77.9375 -18.34375 C 77.695312 -17.601562 77.164062 -17.070312 76.34375 -16.75 C 76.175781 -16.582031 76.257812 -16.375 76.59375 -16.125 C 76.925781 -15.882812 77.171875 -15.765625 77.328125 -15.765625 C 77.492188 -15.597656 77.617188 -15.515625 77.703125 -15.515625 C 77.785156 -15.515625 77.910156 -15.429688 78.078125 -15.265625 C 77.910156 -14.441406 77.578125 -13.742188 77.078125 -13.171875 C 76.585938 -12.597656 76.015625 -11.898438 75.359375 -11.078125 C 74.378906 -10.585938 73.476562 -10.132812 72.65625 -9.71875 C 71.832031 -9.3125 71.09375 -8.695312 70.4375 -7.875 C 70.269531 -7.71875 70.019531 -7.597656 69.6875 -7.515625 C 69.363281 -7.429688 69.039062 -7.304688 68.71875 -7.140625 C 68.21875 -6.972656 67.765625 -6.804688 67.359375 -6.640625 C 66.953125 -6.484375 66.582031 -6.40625 66.25 -6.40625 C 65.757812 -6.238281 65.265625 -6.070312 64.765625 -5.90625 C 64.273438 -5.75 63.703125 -5.671875 63.046875 -5.671875 C 63.046875 -5.671875 63.003906 -5.671875 62.921875 -5.671875 C 62.835938 -5.671875 62.71875 -5.671875 62.5625 -5.671875 C 61.894531 -5.828125 61.394531 -6.148438 61.0625 -6.640625 C 60.738281 -7.140625 60.332031 -7.472656 59.84375 -7.640625 C 57.707031 -8.953125 55.773438 -11.207031 54.046875 -14.40625 C 52.328125 -17.601562 51.304688 -20.4375 50.984375 -22.90625 C 50.816406 -24.21875 50.609375 -25.53125 50.359375 -26.84375 C 50.117188 -28.15625 50.078125 -29.382812 50.234375 -30.53125 C 50.234375 -32.007812 50.316406 -33.488281 50.484375 -34.96875 C 50.648438 -36.445312 50.894531 -37.925781 51.21875 -39.40625 C 51.21875 -40.226562 50.890625 -40.800781 50.234375 -41.125 C 50.078125 -41.125 50 -41.082031 50 -41 C 50 -40.914062 49.914062 -40.875 49.75 -40.875 C 48.925781 -39.726562 48.0625 -38.578125 47.15625 -37.421875 C 46.257812 -36.273438 45.5625 -34.882812 45.0625 -33.25 C 45.0625 -32.59375 44.859375 -32.054688 44.453125 -31.640625 C 44.046875 -31.234375 43.757812 -30.703125 43.59375 -30.046875 C 43.425781 -29.878906 43.015625 -29.796875 42.359375 -29.796875 C 42.191406 -29.472656 42.023438 -29.144531 41.859375 -28.8125 C 41.703125 -28.488281 41.625 -28.160156 41.625 -27.828125 C 41.789062 -27.503906 41.992188 -27.175781 42.234375 -26.84375 C 42.484375 -26.519531 42.441406 -26.191406 42.109375 -25.859375 C 41.953125 -25.691406 41.789062 -25.566406 41.625 -25.484375 C 41.457031 -25.398438 41.289062 -25.195312 41.125 -24.875 C 40.46875 -24.875 40.222656 -24.628906 40.390625 -24.140625 C 40.054688 -23.972656 39.765625 -23.804688 39.515625 -23.640625 C 39.273438 -23.472656 38.992188 -23.3125 38.671875 -23.15625 C 38.503906 -22.988281 38.460938 -22.78125 38.546875 -22.53125 C 38.628906 -22.289062 38.671875 -22.171875 38.671875 -22.171875 C 39.816406 -21.835938 40.304688 -21.382812 40.140625 -20.8125 C 39.972656 -20.238281 39.726562 -19.785156 39.40625 -19.453125 C 39.070312 -18.960938 38.703125 -18.46875 38.296875 -17.96875 C 37.890625 -17.476562 37.359375 -17.070312 36.703125 -16.75 C 36.703125 -15.757812 36.453125 -14.894531 35.953125 -14.15625 C 35.460938 -13.414062 34.972656 -12.640625 34.484375 -11.828125 C 31.523438 -8.378906 28.320312 -5.175781 24.875 -2.21875 C 24.707031 -2.050781 24.457031 -1.757812 24.125 -1.34375 C 23.800781 -0.9375 23.476562 -0.570312 23.15625 -0.25 C 22.164062 0.90625 21.09375 1.972656 19.9375 2.953125 C 18.789062 3.941406 17.316406 4.847656 15.515625 5.671875 C 14.859375 5.992188 14.117188 6.316406 13.296875 6.640625 C 12.472656 6.972656 11.570312 7.140625 10.59375 7.140625 C 10.09375 7.140625 9.679688 7.222656 9.359375 7.390625 C 9.023438 7.554688 8.367188 7.640625 7.390625 7.640625 C 7.222656 7.640625 7.097656 7.640625 7.015625 7.640625 C 6.929688 7.640625 6.8125 7.640625 6.65625 7.640625 C 6 7.304688 5.21875 7.015625 4.3125 6.765625 C 3.40625 6.523438 2.707031 6.078125 2.21875 5.421875 C 1.394531 4.109375 0.492188 2.832031 -0.484375 1.59375 C -1.472656 0.363281 -2.132812 -0.988281 -2.46875 -2.46875 C -2.625 -2.789062 -2.742188 -3.113281 -2.828125 -3.4375 C -2.910156 -3.769531 -3.035156 -4.101562 -3.203125 -4.4375 C -3.367188 -4.925781 -3.53125 -5.414062 -3.6875 -5.90625 C -3.851562 -6.40625 -3.851562 -6.816406 -3.6875 -7.140625 C -3.53125 -8.128906 -3.570312 -9.15625 -3.8125 -10.21875 C -4.0625 -11.289062 -4.101562 -12.316406 -3.9375 -13.296875 C -3.9375 -18.554688 -3.441406 -23.8125 -2.453125 -29.0625 C -1.472656 -34.3125 -0.160156 -39.398438 1.484375 -44.328125 C 1.972656 -47.117188 2.707031 -49.664062 3.6875 -51.96875 C 4.019531 -53.28125 4.390625 -54.550781 4.796875 -55.78125 C 5.210938 -57.007812 5.503906 -58.28125 5.671875 -59.59375 C 5.671875 -59.59375 5.628906 -59.675781 5.546875 -59.84375 C 5.460938 -60.007812 5.503906 -60.175781 5.671875 -60.34375 C 5.828125 -60.664062 6.316406 -61.8125 7.140625 -63.78125 C 7.960938 -65.757812 8.90625 -67.976562 9.96875 -70.4375 C 11.039062 -72.894531 12.023438 -75.148438 12.921875 -77.203125 C 13.828125 -79.253906 14.28125 -80.363281 14.28125 -80.53125 C 14.613281 -81.84375 15.394531 -82.742188 16.625 -83.234375 C 17.851562 -83.734375 19.039062 -84.226562 20.1875 -84.71875 C 20.851562 -84.882812 21.59375 -84.679688 22.40625 -84.109375 C 23.226562 -83.535156 23.476562 -83 23.15625 -82.5 C 22.988281 -81.351562 23.023438 -80.203125 23.265625 -79.046875 C 23.515625 -77.898438 23.476562 -76.753906 23.15625 -75.609375 C 23.15625 -74.785156 22.828125 -74.128906 22.171875 -73.640625 C 21.671875 -73.148438 21.335938 -72.570312 21.171875 -71.90625 C 21.015625 -71.25 20.769531 -70.675781 20.4375 -70.1875 C 19.457031 -68.382812 18.640625 -66.617188 17.984375 -64.890625 C 17.328125 -63.171875 16.585938 -61.40625 15.765625 -59.59375 C 14.609375 -57.300781 13.25 -54.222656 11.6875 -50.359375 C 10.132812 -46.503906 8.78125 -42.644531 7.625 -38.78125 C 6.476562 -34.925781 5.828125 -31.601562 5.671875 -28.8125 C 5.003906 -26.1875 4.546875 -23.476562 4.296875 -20.6875 C 4.054688 -17.894531 3.773438 -15.101562 3.453125 -12.3125 C 3.453125 -12.144531 3.410156 -11.859375 3.328125 -11.453125 C 3.242188 -11.046875 3.285156 -10.675781 3.453125 -10.34375 C 3.773438 -8.863281 4.054688 -7.34375 4.296875 -5.78125 C 4.546875 -4.226562 4.753906 -2.710938 4.921875 -1.234375 L 4.921875 -0.734375 C 5.421875 0.578125 6.242188 1.234375 7.390625 1.234375 C 7.878906 1.234375 8.207031 1.148438 8.375 0.984375 C 9.6875 0.492188 10.875 -0.0351562 11.9375 -0.609375 C 13.007812 -1.191406 13.957031 -1.8125 14.78125 -2.46875 C 16.09375 -3.78125 17.445312 -5.007812 18.84375 -6.15625 C 20.238281 -7.300781 21.347656 -8.695312 22.171875 -10.34375 C 24.140625 -12.144531 25.820312 -14.113281 27.21875 -16.25 C 28.613281 -18.382812 30.128906 -20.273438 31.765625 -21.921875 C 32.421875 -22.578125 32.910156 -23.3125 33.234375 -24.125 C 33.566406 -24.945312 33.984375 -25.691406 34.484375 -26.359375 C 35.960938 -28.648438 37.359375 -31.023438 38.671875 -33.484375 C 39.984375 -35.953125 41.296875 -38.335938 42.609375 -40.640625 C 43.921875 -43.429688 45.191406 -46.257812 46.421875 -49.125 C 47.648438 -52 49.003906 -54.753906 50.484375 -57.390625 C 51.640625 -59.679688 52.664062 -62.015625 53.5625 -64.390625 C 54.46875 -66.773438 55.492188 -69.035156 56.640625 -71.171875 C 57.140625 -71.992188 57.507812 -72.816406 57.75 -73.640625 C 58 -74.460938 58.367188 -75.203125 58.859375 -75.859375 C 59.347656 -77.335938 59.878906 -78.8125 60.453125 -80.28125 C 61.035156 -81.757812 61.65625 -83.15625 62.3125 -84.46875 C 62.800781 -85.457031 63.375 -86.195312 64.03125 -86.6875 C 64.851562 -87.1875 65.59375 -87.4375 66.25 -87.4375 C 67.070312 -87.4375 67.726562 -87.1875 68.21875 -86.6875 C 68.21875 -86.363281 68.460938 -86.203125 68.953125 -86.203125 C 69.941406 -86.203125 70.722656 -85.992188 71.296875 -85.578125 C 71.867188 -85.171875 72.320312 -84.722656 72.65625 -84.234375 C 73.476562 -82.585938 73.5625 -81.191406 72.90625 -80.046875 C 69.945312 -72.984375 67.273438 -65.632812 64.890625 -58 C 62.515625 -50.363281 60.75 -42.6875 59.59375 -34.96875 C 59.59375 -34.3125 59.515625 -33.820312 59.359375 -33.5 C 58.859375 -30.863281 58.566406 -28.847656 58.484375 -27.453125 C 58.410156 -26.054688 58.535156 -24.128906 58.859375 -21.671875 C 59.191406 -20.847656 59.394531 -19.984375 59.46875 -19.078125 C 59.550781 -18.179688 59.675781 -17.238281 59.84375 -16.25 C 60.007812 -15.59375 60.296875 -14.976562 60.703125 -14.40625 C 61.117188 -13.832031 61.488281 -13.378906 61.8125 -13.046875 C 64.28125 -13.867188 66.582031 -14.851562 68.71875 -16 C 70.851562 -17.15625 72.820312 -18.472656 74.625 -19.953125 C 75.113281 -20.441406 75.644531 -20.972656 76.21875 -21.546875 C 76.800781 -22.117188 77.421875 -22.488281 78.078125 -22.65625 C 79.222656 -23.3125 80.242188 -24.050781 81.140625 -24.875 C 82.046875 -25.695312 82.992188 -26.4375 83.984375 -27.09375 C 84.804688 -27.914062 85.707031 -28.734375 86.6875 -29.546875 C 87.675781 -30.367188 88.660156 -31.109375 89.640625 -31.765625 C 89.640625 -31.765625 90.050781 -31.765625 90.875 -31.765625 Z M 45.8125 -42.609375 C 45.644531 -41.617188 45.351562 -40.585938 44.9375 -39.515625 C 44.53125 -38.453125 43.914062 -37.429688 43.09375 -36.453125 C 43.09375 -35.953125 43.257812 -35.457031 43.59375 -34.96875 C 43.914062 -35.457031 44.28125 -35.945312 44.6875 -36.4375 C 45.101562 -36.9375 45.394531 -37.351562 45.5625 -37.6875 C 46.050781 -38.664062 46.539062 -39.644531 47.03125 -40.625 C 47.53125 -41.613281 47.613281 -42.765625 47.28125 -44.078125 C 48.59375 -44.410156 49.453125 -45.023438 49.859375 -45.921875 C 50.273438 -46.828125 50.484375 -47.773438 50.484375 -48.765625 C 50.484375 -48.929688 50.441406 -49.050781 50.359375 -49.125 C 50.273438 -49.207031 50.234375 -49.332031 50.234375 -49.5 C 49.910156 -49.988281 49.421875 -49.90625 48.765625 -49.25 C 48.109375 -47.613281 47.613281 -45.890625 47.28125 -44.078125 C 46.789062 -43.921875 46.300781 -43.429688 45.8125 -42.609375 Z M 55.40625 -61.328125 C 55.738281 -61.328125 55.820312 -61.40625 55.65625 -61.5625 C 55.65625 -61.5625 55.613281 -61.5625 55.53125 -61.5625 C 55.445312 -61.5625 55.328125 -61.484375 55.171875 -61.328125 C 53.691406 -60.503906 53.035156 -59.597656 53.203125 -58.609375 C 53.203125 -57.628906 52.992188 -56.769531 52.578125 -56.03125 C 52.171875 -55.289062 51.71875 -54.507812 51.21875 -53.6875 C 51.0625 -53.195312 50.859375 -52.742188 50.609375 -52.328125 C 50.359375 -51.921875 50.070312 -51.390625 49.75 -50.734375 C 50.070312 -50.734375 50.273438 -50.691406 50.359375 -50.609375 C 50.441406 -50.523438 50.566406 -50.484375 50.734375 -50.484375 C 51.222656 -50.484375 51.632812 -50.648438 51.96875 -50.984375 C 52.789062 -52.296875 53.445312 -53.609375 53.9375 -54.921875 C 54.257812 -55.410156 54.335938 -55.898438 54.171875 -56.390625 C 54.015625 -56.890625 53.9375 -57.46875 53.9375 -58.125 C 54.101562 -58.613281 54.429688 -59.101562 54.921875 -59.59375 C 55.410156 -60.09375 55.492188 -60.671875 55.171875 -61.328125 C 55.171875 -61.328125 55.207031 -61.328125 55.28125 -61.328125 C 55.363281 -61.328125 55.40625 -61.328125 55.40625 -61.328125 Z M 98.265625 -38.171875 L 98.515625 -37.921875 L 98.515625 -37.6875 C 97.859375 -37.03125 97.238281 -36.410156 96.65625 -35.828125 C 96.082031 -35.253906 95.390625 -34.804688 94.578125 -34.484375 L 93.59375 -34.484375 C 94.25 -36.117188 95.804688 -37.347656 98.265625 -38.171875 Z M 42.359375 -29.796875 C 42.359375 -29.796875 42.316406 -29.796875 42.234375 -29.796875 C 42.148438 -29.796875 42.109375 -29.796875 42.109375 -29.796875 C 41.953125 -30.285156 41.953125 -30.695312 42.109375 -31.03125 C 42.273438 -31.363281 42.441406 -31.691406 42.609375 -32.015625 C 42.609375 -32.179688 42.566406 -32.304688 42.484375 -32.390625 C 42.398438 -32.472656 42.359375 -32.59375 42.359375 -32.75 C 42.035156 -32.75 41.789062 -32.671875 41.625 -32.515625 L 40.875 -31.765625 C 40.875 -31.765625 40.875 -31.519531 40.875 -31.03125 C 40.71875 -30.375 41.128906 -29.960938 42.109375 -29.796875 C 42.109375 -29.796875 42.191406 -29.796875 42.359375 -29.796875 Z M 36.453125 -23.15625 C 37.765625 -23.644531 38.175781 -24.460938 37.6875 -25.609375 C 36.363281 -25.285156 35.953125 -24.46875 36.453125 -23.15625 Z M 40.140625 -28.328125 C 40.140625 -28.648438 39.894531 -28.8125 39.40625 -28.8125 L 38.671875 -28.8125 C 38.503906 -28.488281 38.460938 -28.160156 38.546875 -27.828125 C 38.628906 -27.503906 38.671875 -27.09375 38.671875 -26.59375 C 39.484375 -26.757812 39.890625 -27.046875 39.890625 -27.453125 C 39.890625 -27.867188 39.972656 -28.160156 40.140625 -28.328125 Z M 31.53125 -14.53125 C 31.851562 -14.695312 32.015625 -14.859375 32.015625 -15.015625 C 32.015625 -15.179688 31.929688 -15.265625 31.765625 -15.265625 C 31.441406 -15.597656 31.195312 -15.765625 31.03125 -15.765625 C 30.695312 -15.597656 30.53125 -15.347656 30.53125 -15.015625 C 30.863281 -14.523438 31.195312 -14.363281 31.53125 -14.53125 Z M 29.796875 -10.09375 L 29.546875 -9.84375 L 30.046875 -9.359375 C 30.210938 -9.359375 30.332031 -9.4375 30.40625 -9.59375 C 30.488281 -9.757812 30.53125 -9.84375 30.53125 -9.84375 C 30.375 -10.007812 30.128906 -10.09375 29.796875 -10.09375 Z M 37.921875 -19.953125 L 38.421875 -20.4375 C 38.253906 -20.4375 38.085938 -20.4375 37.921875 -20.4375 C 37.765625 -20.4375 37.519531 -20.4375 37.1875 -20.4375 C 37.351562 -20.269531 37.476562 -20.1875 37.5625 -20.1875 C 37.644531 -20.1875 37.765625 -20.109375 37.921875 -19.953125 Z M 51.21875 -43.59375 L 51.21875 -44.078125 L 50.984375 -44.328125 L 50.484375 -44.078125 C 50.648438 -43.921875 50.773438 -43.84375 50.859375 -43.84375 C 50.941406 -43.84375 51.0625 -43.757812 51.21875 -43.59375 Z M 28.078125 -11.328125 L 28.5625 -11.578125 L 28.078125 -11.578125 Z M 51.71875 -46.046875 L 51.46875 -45.8125 L 51.71875 -45.8125 Z M 34.484375 -15.015625 L 34.484375 -14.78125 L 34.71875 -14.53125 Z M 34.234375 -20.4375 L 34.484375 -20.1875 L 34.484375 -20.4375 Z M 60.09375 -57.390625 L 60.09375 -57.625 L 59.84375 -57.625 Z M 33 -13.296875 L 32.75 -13.046875 L 33 -13.046875 Z M 27.578125 -8.375 L 27.578125 -7.875 Z M 27.578125 -8.375 "></path></g></g></g></g></g></svg></svg></g></g></svg></g><g id="dark-icon"><svg xmlns="http://www.w3.org/2000/svg" version="1.1" xmlns:xlink="http://www.w3.org/1999/xlink" width="1000" height="1000"><g><g transform="matrix(2,0,0,2,0,0)"><svg xmlns="http://www.w3.org/2000/svg" version="1.1" xmlns:xlink="http://www.w3.org/1999/xlink" width="500" height="500"><svg xmlns="http://www.w3.org/2000/svg" xmlns:xlink="http://www.w3.org/1999/xlink" width="500" zoomAndPan="magnify" viewBox="0 0 375 374.999991" height="500" preserveAspectRatio="xMidYMid meet" version="1.0"><defs><g></g><clipPath id="0304f68844"><rect x="0" width="277" y="0" height="334"></rect></clipPath></defs><g transform="matrix(1, 0, 0, 1, 53, 41)"><g clip-path="url(#0304f68844)"><g fill="#ffffff" fill-opacity="1"><g transform="translate(4.455728, 222.941363)"><g><path d="M 118.21875 -7.140625 L 118.21875 -7.640625 C 118.050781 -7.640625 117.925781 -7.675781 117.84375 -7.75 C 117.757812 -7.832031 117.632812 -7.875 117.46875 -7.875 C 117.3125 -7.875 117.191406 -7.832031 117.109375 -7.75 C 117.023438 -7.675781 116.984375 -7.640625 116.984375 -7.640625 C 116.816406 -7.140625 117.0625 -6.890625 117.71875 -6.890625 C 117.882812 -6.890625 118.007812 -6.929688 118.09375 -7.015625 C 118.175781 -7.097656 118.21875 -7.140625 118.21875 -7.140625 Z M 132.5 -16.25 C 132.820312 -16.25 133.226562 -16.289062 133.71875 -16.375 C 134.21875 -16.457031 134.550781 -16.742188 134.71875 -17.234375 C 133.40625 -17.234375 132.664062 -16.90625 132.5 -16.25 Z M 134.46875 -17.234375 C 135.289062 -17.234375 135.703125 -17.726562 135.703125 -18.71875 C 135.535156 -18.550781 135.328125 -18.34375 135.078125 -18.09375 C 134.835938 -17.851562 134.632812 -17.566406 134.46875 -17.234375 Z M 135.703125 -18.71875 C 136.359375 -18.71875 136.6875 -19.046875 136.6875 -19.703125 C 136.195312 -19.535156 135.867188 -19.207031 135.703125 -18.71875 Z M 136.6875 -19.453125 C 137.34375 -19.785156 137.671875 -20.195312 137.671875 -20.6875 C 137.015625 -20.351562 136.6875 -19.941406 136.6875 -19.453125 Z M 137.671875 -20.4375 C 138.160156 -20.601562 138.488281 -21.015625 138.65625 -21.671875 C 138 -21.671875 137.671875 -21.257812 137.671875 -20.4375 Z M 141.125 -23.640625 C 139.644531 -23.316406 138.820312 -22.660156 138.65625 -21.671875 C 140.300781 -21.671875 141.125 -22.328125 141.125 -23.640625 Z M 141.125 -23.640625 L 140.875 -23.640625 C 140.875 -23.640625 140.914062 -23.640625 141 -23.640625 C 141.082031 -23.640625 141.125 -23.640625 141.125 -23.640625 Z M 154.171875 -39.65625 C 154.335938 -39.976562 154.421875 -40.34375 154.421875 -40.75 C 154.421875 -41.164062 154.503906 -41.457031 154.671875 -41.625 C 151.378906 -39.488281 149.242188 -36.285156 148.265625 -32.015625 C 149.742188 -33.003906 150.8125 -34.234375 151.46875 -35.703125 C 152.125 -37.179688 153.023438 -38.5 154.171875 -39.65625 Z M 160.078125 -54.421875 C 160.578125 -53.609375 160.988281 -53.203125 161.3125 -53.203125 C 162.300781 -54.671875 162.796875 -55.816406 162.796875 -56.640625 C 162.796875 -56.640625 162.796875 -56.679688 162.796875 -56.765625 C 162.796875 -56.847656 162.710938 -56.890625 162.546875 -56.890625 C 162.210938 -56.890625 161.757812 -56.601562 161.1875 -56.03125 C 160.613281 -55.457031 160.242188 -54.921875 160.078125 -54.421875 Z M 168.453125 -76.84375 C 168.285156 -77.007812 168.242188 -77.171875 168.328125 -77.328125 C 168.410156 -77.492188 168.289062 -77.414062 167.96875 -77.09375 C 168.125 -76.925781 168.285156 -76.84375 168.453125 -76.84375 Z M 159.84375 -46.046875 L 160.078125 -45.5625 C 159.921875 -45.226562 159.800781 -44.894531 159.71875 -44.5625 C 159.632812 -44.238281 159.34375 -44 158.84375 -43.84375 C 158.351562 -41.863281 157.695312 -40.050781 156.875 -38.40625 C 156.0625 -36.769531 154.75 -35.296875 152.9375 -33.984375 C 152.445312 -33.492188 151.992188 -33.039062 151.578125 -32.625 C 151.171875 -32.21875 150.804688 -31.769531 150.484375 -31.28125 C 149.660156 -29.3125 148.179688 -27.832031 146.046875 -26.84375 C 146.046875 -26.519531 146.085938 -26.234375 146.171875 -25.984375 C 146.253906 -25.734375 146.128906 -25.445312 145.796875 -25.125 L 144.5625 -25.125 C 144.40625 -25.125 144.40625 -25.367188 144.5625 -25.859375 C 144.894531 -26.191406 145.179688 -26.4375 145.421875 -26.59375 C 145.671875 -26.757812 145.960938 -26.925781 146.296875 -27.09375 C 146.128906 -27.75 146.535156 -28.488281 147.515625 -29.3125 C 147.847656 -29.96875 148.09375 -30.5 148.25 -30.90625 C 148.414062 -31.320312 148.421875 -31.691406 148.265625 -32.015625 C 147.273438 -31.691406 146.453125 -31.078125 145.796875 -30.171875 C 145.140625 -29.265625 144.398438 -28.398438 143.578125 -27.578125 C 142.921875 -27.085938 142.382812 -26.515625 141.96875 -25.859375 C 141.5625 -25.203125 141.195312 -24.460938 140.875 -23.640625 L 141.125 -23.640625 C 141.445312 -23.640625 141.691406 -23.554688 141.859375 -23.390625 C 142.679688 -23.066406 142.925781 -22.660156 142.59375 -22.171875 C 141.9375 -21.347656 141.195312 -20.523438 140.375 -19.703125 C 139.5625 -18.878906 138.742188 -17.976562 137.921875 -17 C 136.929688 -16.007812 135.78125 -15.269531 134.46875 -14.78125 C 134.300781 -14.613281 134.050781 -14.53125 133.71875 -14.53125 C 133.394531 -14.53125 133.148438 -14.53125 132.984375 -14.53125 C 132.660156 -14.851562 132.5 -15.179688 132.5 -15.515625 C 132.5 -15.847656 132.5 -16.09375 132.5 -16.25 C 132.007812 -16.09375 131.472656 -15.890625 130.890625 -15.640625 C 130.316406 -15.390625 129.785156 -15.101562 129.296875 -14.78125 C 128.804688 -14.445312 129.050781 -13.707031 130.03125 -12.5625 C 129.539062 -11.414062 128.0625 -10.019531 125.59375 -8.375 C 123.132812 -6.726562 121.332031 -5.828125 120.1875 -5.671875 C 119.695312 -5.671875 119.125 -5.335938 118.46875 -4.671875 C 118.132812 -4.515625 117.84375 -4.351562 117.59375 -4.1875 C 117.351562 -4.019531 116.984375 -3.9375 116.484375 -3.9375 C 114.679688 -3.445312 112.914062 -2.75 111.1875 -1.84375 C 109.46875 -0.945312 107.707031 -0.0859375 105.90625 0.734375 C 105.25 0.898438 104.59375 1.101562 103.9375 1.34375 C 103.28125 1.59375 102.539062 1.71875 101.71875 1.71875 C 100.40625 1.71875 99.171875 1.390625 98.015625 0.734375 C 97.359375 0.578125 97.03125 1.070312 97.03125 2.21875 C 96.050781 2.382812 95.066406 2.753906 94.078125 3.328125 C 93.097656 3.898438 92.113281 4.101562 91.125 3.9375 C 90.300781 3.9375 89.601562 4.097656 89.03125 4.421875 C 88.457031 4.753906 87.84375 5.085938 87.1875 5.421875 C 85.539062 6.398438 83.898438 6.890625 82.265625 6.890625 C 81.273438 6.890625 80.613281 6.8125 80.28125 6.65625 C 79.789062 6.488281 79.054688 6.40625 78.078125 6.40625 C 77.421875 6.40625 76.722656 6.445312 75.984375 6.53125 C 75.242188 6.613281 74.546875 6.65625 73.890625 6.65625 C 73.722656 6.65625 73.597656 6.65625 73.515625 6.65625 C 73.429688 6.65625 73.304688 6.65625 73.140625 6.65625 C 71.992188 6.65625 70.765625 6.65625 69.453125 6.65625 C 68.140625 6.65625 66.828125 6.734375 65.515625 6.890625 C 64.859375 7.222656 64.445312 7.390625 64.28125 7.390625 C 63.945312 7.390625 63.453125 7.222656 62.796875 6.890625 L 59.59375 6.890625 C 57.625 7.390625 56.640625 8.625 56.640625 10.59375 C 56.472656 11.738281 56.222656 12.800781 55.890625 13.78125 C 55.566406 14.769531 55.160156 15.675781 54.671875 16.5 C 54.503906 16.832031 54.175781 17 53.6875 17 C 53.195312 17 52.867188 16.914062 52.703125 16.75 C 52.535156 16.414062 52.328125 16.003906 52.078125 15.515625 C 51.835938 15.023438 51.472656 14.78125 50.984375 14.78125 C 50.648438 14.78125 50.398438 14.859375 50.234375 15.015625 C 48.765625 14.035156 48.191406 12.644531 48.515625 10.84375 C 48.515625 10.675781 48.554688 10.46875 48.640625 10.21875 C 48.722656 9.96875 48.765625 9.765625 48.765625 9.609375 C 48.429688 8.617188 48.1875 8.125 48.03125 8.125 C 47.375 7.957031 46.59375 7.671875 45.6875 7.265625 C 44.78125 6.859375 43.914062 6.65625 43.09375 6.65625 C 42.9375 6.65625 42.816406 6.65625 42.734375 6.65625 C 42.648438 6.65625 42.523438 6.65625 42.359375 6.65625 C 41.210938 6.65625 40.019531 6.488281 38.78125 6.15625 C 37.550781 5.832031 36.28125 5.671875 34.96875 5.671875 C 34.800781 5.671875 34.675781 5.671875 34.59375 5.671875 C 34.519531 5.671875 34.398438 5.671875 34.234375 5.671875 C 32.921875 5.671875 31.6875 5.503906 30.53125 5.171875 C 29.382812 4.835938 28.15625 4.671875 26.84375 4.671875 C 24.707031 3.691406 22.40625 2.832031 19.9375 2.09375 C 17.476562 1.351562 15.265625 0.410156 13.296875 -0.734375 C 12.472656 -1.234375 11.734375 -1.644531 11.078125 -1.96875 C 10.421875 -2.300781 9.847656 -2.628906 9.359375 -2.953125 C 8.210938 -3.773438 7.019531 -4.597656 5.78125 -5.421875 C 4.550781 -6.242188 3.523438 -7.144531 2.703125 -8.125 C 1.066406 -9.9375 0.0859375 -11.128906 -0.234375 -11.703125 C -0.566406 -12.273438 -0.734375 -13.789062 -0.734375 -16.25 C 0.578125 -15.757812 1.640625 -14.976562 2.453125 -13.90625 C 3.273438 -12.84375 4.265625 -12.066406 5.421875 -11.578125 C 7.390625 -10.585938 9.273438 -9.4375 11.078125 -8.125 C 12.890625 -6.8125 14.863281 -5.910156 17 -5.421875 C 17.320312 -5.253906 17.6875 -5.085938 18.09375 -4.921875 C 18.507812 -4.753906 18.800781 -4.59375 18.96875 -4.4375 C 19.625 -3.78125 20.726562 -3.242188 22.28125 -2.828125 C 23.84375 -2.421875 25.117188 -2.21875 26.109375 -2.21875 C 28.734375 -1.5625 30.820312 -1.066406 32.375 -0.734375 C 33.9375 -0.410156 36.035156 -0.25 38.671875 -0.25 C 39.484375 -0.25 40.175781 -0.207031 40.75 -0.125 C 41.332031 -0.0390625 41.953125 0.164062 42.609375 0.5 L 44.078125 0.5 C 44.410156 0.5 44.695312 0.5 44.9375 0.5 C 45.1875 0.5 45.394531 0.5 45.5625 0.5 C 48.675781 0.5 50.316406 0.210938 50.484375 -0.359375 C 50.648438 -0.941406 51.226562 -2.710938 52.21875 -5.671875 C 52.707031 -7.304688 52.992188 -8.941406 53.078125 -10.578125 C 53.160156 -12.222656 53.53125 -13.867188 54.1875 -15.515625 C 55 -18.304688 55.691406 -21.21875 56.265625 -24.25 C 56.847656 -27.289062 57.550781 -30.207031 58.375 -33 C 58.375 -34.96875 58.703125 -36.8125 59.359375 -38.53125 C 60.015625 -40.257812 60.421875 -42.03125 60.578125 -43.84375 C 60.910156 -45.644531 61.40625 -47.445312 62.0625 -49.25 C 62.71875 -51.0625 63.128906 -52.867188 63.296875 -54.671875 C 64.117188 -58.609375 65.0625 -62.46875 66.125 -66.25 C 67.195312 -70.03125 68.140625 -73.890625 68.953125 -77.828125 C 69.609375 -80.117188 70.265625 -82.457031 70.921875 -84.84375 C 71.585938 -87.226562 72.164062 -89.484375 72.65625 -91.609375 C 73.476562 -94.398438 74.253906 -97.273438 74.984375 -100.234375 C 75.722656 -103.191406 76.175781 -106.066406 76.34375 -108.859375 C 77.164062 -110.492188 77.535156 -112.171875 77.453125 -113.890625 C 77.367188 -115.617188 77.65625 -117.222656 78.3125 -118.703125 C 78.3125 -120.179688 78.554688 -121.703125 79.046875 -123.265625 C 79.546875 -124.828125 79.878906 -126.425781 80.046875 -128.0625 C 80.203125 -129.707031 80.363281 -131.304688 80.53125 -132.859375 C 80.695312 -134.421875 80.695312 -136.109375 80.53125 -137.921875 C 80.53125 -139.066406 81.109375 -139.882812 82.265625 -140.375 C 82.421875 -140.539062 82.75 -140.625 83.25 -140.625 C 84.394531 -140.625 85.128906 -140.210938 85.453125 -139.390625 C 86.109375 -138.566406 86.679688 -137.742188 87.171875 -136.921875 C 87.671875 -136.109375 88.003906 -135.046875 88.171875 -133.734375 C 88.171875 -133.078125 88.210938 -132.421875 88.296875 -131.765625 C 88.378906 -131.109375 88.5 -130.453125 88.65625 -129.796875 C 88.820312 -129.628906 88.90625 -129.378906 88.90625 -129.046875 C 88.90625 -128.722656 88.90625 -128.476562 88.90625 -128.3125 C 88.414062 -127.164062 88.171875 -126.054688 88.171875 -124.984375 C 88.171875 -123.921875 88.085938 -122.734375 87.921875 -121.421875 C 87.753906 -118.785156 87.257812 -116.078125 86.4375 -113.296875 C 85.289062 -109.023438 84.222656 -104.671875 83.234375 -100.234375 C 82.253906 -95.804688 81.191406 -91.457031 80.046875 -87.1875 C 79.546875 -84.71875 78.96875 -82.332031 78.3125 -80.03125 C 77.65625 -77.738281 77.082031 -75.441406 76.59375 -73.140625 C 76.101562 -71.503906 75.648438 -69.695312 75.234375 -67.71875 C 74.828125 -65.75 74.457031 -63.78125 74.125 -61.8125 C 73.3125 -59.1875 72.535156 -56.5625 71.796875 -53.9375 C 71.054688 -51.3125 70.273438 -48.679688 69.453125 -46.046875 C 69.285156 -44.898438 69.160156 -43.75 69.078125 -42.59375 C 68.992188 -41.445312 68.707031 -40.382812 68.21875 -39.40625 C 67.238281 -37.269531 66.828125 -35.132812 66.984375 -33 C 66.984375 -32.675781 66.90625 -32.429688 66.75 -32.265625 C 65.757812 -30.128906 65.140625 -27.992188 64.890625 -25.859375 C 64.648438 -23.722656 64.203125 -21.671875 63.546875 -19.703125 C 63.046875 -17.734375 62.585938 -15.765625 62.171875 -13.796875 C 61.765625 -11.828125 61.234375 -9.9375 60.578125 -8.125 C 60.421875 -7.46875 60.34375 -6.8125 60.34375 -6.15625 C 60.34375 -5.5 60.175781 -4.757812 59.84375 -3.9375 C 59.675781 -3.613281 59.59375 -3.125 59.59375 -2.46875 C 59.59375 -1.8125 59.59375 -1.234375 59.59375 -0.734375 C 59.59375 0.242188 60.003906 0.570312 60.828125 0.25 C 61.484375 0.0820312 62.015625 -0.0390625 62.421875 -0.125 C 62.835938 -0.207031 63.210938 -0.25 63.546875 -0.25 C 63.703125 -0.25 63.78125 -0.25 63.78125 -0.25 C 63.78125 -0.25 63.863281 -0.25 64.03125 -0.25 C 64.363281 -0.25 64.648438 -0.25 64.890625 -0.25 C 65.140625 -0.25 65.347656 -0.25 65.515625 -0.25 C 67.804688 -0.25 70.140625 -0.453125 72.515625 -0.859375 C 74.898438 -1.273438 77.160156 -1.5625 79.296875 -1.71875 C 80.453125 -2.050781 81.644531 -2.296875 82.875 -2.453125 C 84.101562 -2.617188 85.289062 -2.785156 86.4375 -2.953125 C 87.101562 -3.117188 88.582031 -3.488281 90.875 -4.0625 C 93.175781 -4.632812 95.722656 -5.289062 98.515625 -6.03125 C 101.304688 -6.769531 103.769531 -7.46875 105.90625 -8.125 C 108.039062 -8.78125 109.351562 -9.273438 109.84375 -9.609375 C 112.144531 -10.921875 114.566406 -12.066406 117.109375 -13.046875 C 119.648438 -14.035156 121.988281 -15.1875 124.125 -16.5 C 126.425781 -17.976562 128.601562 -19.492188 130.65625 -21.046875 C 132.707031 -22.609375 134.800781 -24.210938 136.9375 -25.859375 C 137.425781 -26.191406 137.832031 -26.601562 138.15625 -27.09375 C 138.976562 -28.238281 139.84375 -29.300781 140.75 -30.28125 C 141.65625 -31.269531 142.597656 -32.175781 143.578125 -33 C 144.398438 -33.820312 145.222656 -34.722656 146.046875 -35.703125 C 146.867188 -36.691406 147.609375 -37.679688 148.265625 -38.671875 C 150.066406 -41.617188 151.953125 -45.101562 153.921875 -49.125 C 155.890625 -53.15625 157.570312 -57.300781 158.96875 -61.5625 C 160.363281 -65.832031 161.0625 -69.691406 161.0625 -73.140625 C 161.882812 -76.097656 162.253906 -79.09375 162.171875 -82.125 C 162.085938 -85.164062 162.046875 -88.164062 162.046875 -91.125 C 162.046875 -91.945312 162.046875 -92.765625 162.046875 -93.578125 C 162.046875 -94.398438 161.882812 -95.304688 161.5625 -96.296875 C 161.226562 -96.617188 161.0625 -97.023438 161.0625 -97.515625 C 161.0625 -98.015625 161.0625 -98.429688 161.0625 -98.765625 C 161.0625 -101.054688 160.894531 -103.351562 160.5625 -105.65625 C 160.238281 -107.957031 159.75 -110.171875 159.09375 -112.296875 C 158.769531 -114.109375 158.484375 -115.875 158.234375 -117.59375 C 157.984375 -119.320312 157.613281 -120.925781 157.125 -122.40625 C 154.5 -130.125 150.882812 -138.046875 146.28125 -146.171875 C 141.6875 -154.296875 136.1875 -161.597656 129.78125 -168.078125 C 123.382812 -174.566406 116 -179.046875 107.625 -181.515625 C 105 -182.328125 102.410156 -183.0625 99.859375 -183.71875 C 97.316406 -184.375 94.734375 -184.703125 92.109375 -184.703125 C 91.941406 -184.703125 91.773438 -184.703125 91.609375 -184.703125 C 91.453125 -184.703125 91.289062 -184.703125 91.125 -184.703125 C 89.644531 -184.546875 88.164062 -184.425781 86.6875 -184.34375 C 85.207031 -184.257812 83.8125 -184.21875 82.5 -184.21875 C 81.351562 -184.21875 80.203125 -184.007812 79.046875 -183.59375 C 77.898438 -183.1875 76.671875 -182.984375 75.359375 -182.984375 C 75.359375 -182.984375 75.316406 -182.984375 75.234375 -182.984375 C 75.148438 -182.984375 75.03125 -182.984375 74.875 -182.984375 C 67.15625 -180.679688 60.546875 -177.804688 55.046875 -174.359375 C 49.546875 -170.910156 44.414062 -165.988281 39.65625 -159.59375 C 39.320312 -158.9375 38.910156 -158.238281 38.421875 -157.5 C 37.929688 -156.757812 37.4375 -155.976562 36.9375 -155.15625 C 36.613281 -154.5 35.710938 -154.003906 34.234375 -153.671875 C 34.066406 -153.671875 33.898438 -153.671875 33.734375 -153.671875 C 33.578125 -153.671875 33.414062 -153.671875 33.25 -153.671875 C 31.769531 -153.671875 31.03125 -154.578125 31.03125 -156.390625 C 31.03125 -157.703125 30.945312 -158.929688 30.78125 -160.078125 C 30.613281 -161.234375 30.78125 -162.382812 31.28125 -163.53125 C 31.9375 -164.84375 32.671875 -166.070312 33.484375 -167.21875 C 34.304688 -168.375 35.128906 -169.523438 35.953125 -170.671875 C 36.117188 -170.835938 36.285156 -171 36.453125 -171.15625 C 36.617188 -171.320312 36.78125 -171.488281 36.9375 -171.65625 C 38.582031 -172.644531 39.976562 -173.710938 41.125 -174.859375 C 42.28125 -176.003906 43.515625 -176.988281 44.828125 -177.8125 C 45.804688 -178.300781 46.664062 -178.832031 47.40625 -179.40625 C 48.144531 -179.988281 48.925781 -180.609375 49.75 -181.265625 C 51.550781 -182.742188 53.5625 -183.972656 55.78125 -184.953125 C 58 -185.941406 60.175781 -186.765625 62.3125 -187.421875 C 63.132812 -187.742188 64.078125 -188.109375 65.140625 -188.515625 C 66.210938 -188.929688 67.238281 -189.382812 68.21875 -189.875 C 70.019531 -190.375 71.863281 -190.742188 73.75 -190.984375 C 75.644531 -191.234375 77.578125 -191.441406 79.546875 -191.609375 C 80.367188 -191.773438 81.191406 -191.894531 82.015625 -191.96875 C 82.835938 -192.050781 83.738281 -192.09375 84.71875 -192.09375 C 85.050781 -192.09375 85.460938 -192.09375 85.953125 -192.09375 C 86.441406 -192.09375 86.851562 -192.015625 87.1875 -191.859375 C 87.84375 -191.859375 88.457031 -191.859375 89.03125 -191.859375 C 89.601562 -191.859375 90.21875 -191.859375 90.875 -191.859375 C 91.53125 -191.859375 92.144531 -191.859375 92.71875 -191.859375 C 93.300781 -191.859375 93.921875 -191.773438 94.578125 -191.609375 C 100.160156 -190.953125 105.703125 -189.71875 111.203125 -187.90625 C 116.703125 -186.101562 121.664062 -183.476562 126.09375 -180.03125 C 128.394531 -178.382812 130.648438 -176.660156 132.859375 -174.859375 C 135.078125 -173.054688 136.925781 -171.003906 138.40625 -168.703125 C 138.570312 -168.367188 138.695312 -168.160156 138.78125 -168.078125 C 138.863281 -168.003906 138.90625 -167.882812 138.90625 -167.71875 C 139.726562 -167.0625 140.46875 -166.445312 141.125 -165.875 C 141.78125 -165.300781 142.269531 -164.519531 142.59375 -163.53125 C 142.269531 -162.539062 142.476562 -161.84375 143.21875 -161.4375 C 143.957031 -161.03125 144.40625 -160.414062 144.5625 -159.59375 C 145.0625 -158.9375 145.554688 -158.28125 146.046875 -157.625 C 146.535156 -156.96875 147.023438 -156.144531 147.515625 -155.15625 C 147.847656 -154.5 148.175781 -153.882812 148.5 -153.3125 C 148.832031 -152.738281 149.164062 -152.039062 149.5 -151.21875 C 149.820312 -150.5625 150.144531 -149.984375 150.46875 -149.484375 C 150.800781 -148.992188 151.296875 -148.585938 151.953125 -148.265625 C 152.285156 -148.097656 152.453125 -147.847656 152.453125 -147.515625 C 152.453125 -147.191406 152.53125 -146.863281 152.6875 -146.53125 C 153.1875 -145.382812 153.722656 -144.15625 154.296875 -142.84375 C 154.867188 -141.53125 155.648438 -140.21875 156.640625 -138.90625 C 156.960938 -138.25 157.242188 -137.671875 157.484375 -137.171875 C 157.734375 -136.679688 157.859375 -136.023438 157.859375 -135.203125 C 157.859375 -134.222656 158.269531 -133.484375 159.09375 -132.984375 C 159.914062 -132.328125 160.445312 -131.546875 160.6875 -130.640625 C 160.9375 -129.742188 161.0625 -128.800781 161.0625 -127.8125 C 160.90625 -126.664062 160.988281 -125.515625 161.3125 -124.359375 C 161.644531 -123.210938 162.46875 -122.3125 163.78125 -121.65625 C 164.101562 -121.332031 164.265625 -120.925781 164.265625 -120.4375 C 163.609375 -119.445312 163.441406 -118.5 163.765625 -117.59375 C 164.097656 -116.695312 164.265625 -115.753906 164.265625 -114.765625 C 164.265625 -114.597656 164.550781 -113.40625 165.125 -111.1875 C 165.707031 -108.976562 166.328125 -106.765625 166.984375 -104.546875 C 167.640625 -102.328125 167.96875 -101.054688 167.96875 -100.734375 C 168.289062 -100.078125 168.367188 -99.664062 168.203125 -99.5 C 167.054688 -97.6875 167.054688 -95.71875 168.203125 -93.59375 C 168.535156 -93.257812 168.660156 -92.84375 168.578125 -92.34375 C 168.492188 -91.851562 168.453125 -91.28125 168.453125 -90.625 C 168.617188 -89.8125 168.742188 -88.992188 168.828125 -88.171875 C 168.910156 -87.347656 169.03125 -86.441406 169.1875 -85.453125 C 169.6875 -82.992188 169.6875 -80.207031 169.1875 -77.09375 C 169.1875 -76.925781 169.101562 -76.84375 168.9375 -76.84375 C 168.78125 -76.84375 168.617188 -76.757812 168.453125 -76.59375 L 168.453125 -71.921875 C 168.453125 -71.585938 168.492188 -71.210938 168.578125 -70.796875 C 168.660156 -70.390625 168.535156 -70.101562 168.203125 -69.9375 C 167.222656 -69.28125 166.851562 -68.457031 167.09375 -67.46875 C 167.34375 -66.488281 167.382812 -65.585938 167.21875 -64.765625 C 167.0625 -62.796875 166.613281 -60.828125 165.875 -58.859375 C 165.132812 -56.890625 164.269531 -55.003906 163.28125 -53.203125 C 163.113281 -52.867188 162.863281 -52.492188 162.53125 -52.078125 C 162.207031 -51.671875 161.640625 -51.382812 160.828125 -51.21875 C 160.660156 -51.21875 160.453125 -51.34375 160.203125 -51.59375 C 159.960938 -51.84375 159.675781 -51.96875 159.34375 -51.96875 C 158.6875 -51.96875 158.273438 -51.429688 158.109375 -50.359375 C 157.941406 -49.296875 157.859375 -48.519531 157.859375 -48.03125 C 156.054688 -46.21875 154.910156 -44.082031 154.421875 -41.625 C 154.742188 -41.945312 155.148438 -42.234375 155.640625 -42.484375 C 156.140625 -42.734375 156.472656 -42.9375 156.640625 -43.09375 C 157.128906 -43.75 157.457031 -44.078125 157.625 -44.078125 C 158.113281 -44.078125 158.519531 -44 158.84375 -43.84375 C 158.84375 -44.164062 158.84375 -44.53125 158.84375 -44.9375 C 158.84375 -45.351562 159.175781 -45.5625 159.84375 -45.5625 C 159.84375 -45.726562 159.84375 -45.8125 159.84375 -45.8125 C 159.84375 -45.8125 159.84375 -45.890625 159.84375 -46.046875 Z M 162.546875 -59.109375 C 162.710938 -59.273438 162.796875 -59.601562 162.796875 -60.09375 C 162.628906 -60.09375 162.503906 -60.050781 162.421875 -59.96875 C 162.335938 -59.882812 162.296875 -59.84375 162.296875 -59.84375 C 162.296875 -59.675781 162.335938 -59.550781 162.421875 -59.46875 C 162.503906 -59.394531 162.546875 -59.273438 162.546875 -59.109375 Z M 165.75 -82.265625 C 165.75 -82.265625 165.789062 -82.34375 165.875 -82.5 C 165.957031 -82.664062 166 -82.75 166 -82.75 C 166 -83.082031 165.832031 -83.25 165.5 -83.25 C 165.5 -82.914062 165.582031 -82.585938 165.75 -82.265625 Z M -0.734375 -16.25 C -0.898438 -16.414062 -1.023438 -16.5 -1.109375 -16.5 C -1.191406 -16.5 -1.316406 -16.582031 -1.484375 -16.75 C -1.148438 -17.070312 -0.984375 -17.109375 -0.984375 -16.859375 C -0.984375 -16.617188 -0.898438 -16.414062 -0.734375 -16.25 Z M 159.84375 -46.046875 L 160.078125 -45.5625 C 160.078125 -45.882812 160.117188 -46.128906 160.203125 -46.296875 C 160.285156 -46.460938 160.328125 -46.628906 160.328125 -46.796875 C 160.660156 -46.296875 160.5 -46.046875 159.84375 -46.046875 Z M 157.859375 -48.03125 C 158.023438 -48.03125 158.148438 -47.988281 158.234375 -47.90625 C 158.316406 -47.820312 158.441406 -47.78125 158.609375 -47.78125 C 158.273438 -47.445312 158.109375 -47.363281 158.109375 -47.53125 C 158.109375 -47.695312 158.023438 -47.863281 157.859375 -48.03125 Z M 157.859375 -48.03125 "></path></g></g></g><g fill="#ffffff" fill-opacity="1"><g transform="translate(175.130869, 222.941363)"><g><path d="M 90.875 -31.765625 C 90.875 -32.421875 91.117188 -32.75 91.609375 -32.75 C 91.609375 -32.257812 91.363281 -31.929688 90.875 -31.765625 C 90.707031 -31.273438 90.378906 -30.945312 89.890625 -30.78125 C 89.398438 -30.125 88.945312 -29.507812 88.53125 -28.9375 C 88.125 -28.363281 87.59375 -27.910156 86.9375 -27.578125 C 86.113281 -27.253906 85.617188 -26.765625 85.453125 -26.109375 C 85.296875 -25.453125 85.050781 -24.796875 84.71875 -24.140625 C 84.226562 -23.804688 83.773438 -23.394531 83.359375 -22.90625 C 82.953125 -22.414062 82.585938 -22.003906 82.265625 -21.671875 C 81.765625 -21.347656 81.269531 -21.019531 80.78125 -20.6875 C 80.289062 -20.351562 79.878906 -20.023438 79.546875 -19.703125 C 78.722656 -19.535156 78.1875 -19.082031 77.9375 -18.34375 C 77.695312 -17.601562 77.164062 -17.070312 76.34375 -16.75 C 76.175781 -16.582031 76.257812 -16.375 76.59375 -16.125 C 76.925781 -15.882812 77.171875 -15.765625 77.328125 -15.765625 C 77.492188 -15.597656 77.617188 -15.515625 77.703125 -15.515625 C 77.785156 -15.515625 77.910156 -15.429688 78.078125 -15.265625 C 77.910156 -14.441406 77.578125 -13.742188 77.078125 -13.171875 C 76.585938 -12.597656 76.015625 -11.898438 75.359375 -11.078125 C 74.378906 -10.585938 73.476562 -10.132812 72.65625 -9.71875 C 71.832031 -9.3125 71.09375 -8.695312 70.4375 -7.875 C 70.269531 -7.71875 70.019531 -7.597656 69.6875 -7.515625 C 69.363281 -7.429688 69.039062 -7.304688 68.71875 -7.140625 C 68.21875 -6.972656 67.765625 -6.804688 67.359375 -6.640625 C 66.953125 -6.484375 66.582031 -6.40625 66.25 -6.40625 C 65.757812 -6.238281 65.265625 -6.070312 64.765625 -5.90625 C 64.273438 -5.75 63.703125 -5.671875 63.046875 -5.671875 C 63.046875 -5.671875 63.003906 -5.671875 62.921875 -5.671875 C 62.835938 -5.671875 62.71875 -5.671875 62.5625 -5.671875 C 61.894531 -5.828125 61.394531 -6.148438 61.0625 -6.640625 C 60.738281 -7.140625 60.332031 -7.472656 59.84375 -7.640625 C 57.707031 -8.953125 55.773438 -11.207031 54.046875 -14.40625 C 52.328125 -17.601562 51.304688 -20.4375 50.984375 -22.90625 C 50.816406 -24.21875 50.609375 -25.53125 50.359375 -26.84375 C 50.117188 -28.15625 50.078125 -29.382812 50.234375 -30.53125 C 50.234375 -32.007812 50.316406 -33.488281 50.484375 -34.96875 C 50.648438 -36.445312 50.894531 -37.925781 51.21875 -39.40625 C 51.21875 -40.226562 50.890625 -40.800781 50.234375 -41.125 C 50.078125 -41.125 50 -41.082031 50 -41 C 50 -40.914062 49.914062 -40.875 49.75 -40.875 C 48.925781 -39.726562 48.0625 -38.578125 47.15625 -37.421875 C 46.257812 -36.273438 45.5625 -34.882812 45.0625 -33.25 C 45.0625 -32.59375 44.859375 -32.054688 44.453125 -31.640625 C 44.046875 -31.234375 43.757812 -30.703125 43.59375 -30.046875 C 43.425781 -29.878906 43.015625 -29.796875 42.359375 -29.796875 C 42.191406 -29.472656 42.023438 -29.144531 41.859375 -28.8125 C 41.703125 -28.488281 41.625 -28.160156 41.625 -27.828125 C 41.789062 -27.503906 41.992188 -27.175781 42.234375 -26.84375 C 42.484375 -26.519531 42.441406 -26.191406 42.109375 -25.859375 C 41.953125 -25.691406 41.789062 -25.566406 41.625 -25.484375 C 41.457031 -25.398438 41.289062 -25.195312 41.125 -24.875 C 40.46875 -24.875 40.222656 -24.628906 40.390625 -24.140625 C 40.054688 -23.972656 39.765625 -23.804688 39.515625 -23.640625 C 39.273438 -23.472656 38.992188 -23.3125 38.671875 -23.15625 C 38.503906 -22.988281 38.460938 -22.78125 38.546875 -22.53125 C 38.628906 -22.289062 38.671875 -22.171875 38.671875 -22.171875 C 39.816406 -21.835938 40.304688 -21.382812 40.140625 -20.8125 C 39.972656 -20.238281 39.726562 -19.785156 39.40625 -19.453125 C 39.070312 -18.960938 38.703125 -18.46875 38.296875 -17.96875 C 37.890625 -17.476562 37.359375 -17.070312 36.703125 -16.75 C 36.703125 -15.757812 36.453125 -14.894531 35.953125 -14.15625 C 35.460938 -13.414062 34.972656 -12.640625 34.484375 -11.828125 C 31.523438 -8.378906 28.320312 -5.175781 24.875 -2.21875 C 24.707031 -2.050781 24.457031 -1.757812 24.125 -1.34375 C 23.800781 -0.9375 23.476562 -0.570312 23.15625 -0.25 C 22.164062 0.90625 21.09375 1.972656 19.9375 2.953125 C 18.789062 3.941406 17.316406 4.847656 15.515625 5.671875 C 14.859375 5.992188 14.117188 6.316406 13.296875 6.640625 C 12.472656 6.972656 11.570312 7.140625 10.59375 7.140625 C 10.09375 7.140625 9.679688 7.222656 9.359375 7.390625 C 9.023438 7.554688 8.367188 7.640625 7.390625 7.640625 C 7.222656 7.640625 7.097656 7.640625 7.015625 7.640625 C 6.929688 7.640625 6.8125 7.640625 6.65625 7.640625 C 6 7.304688 5.21875 7.015625 4.3125 6.765625 C 3.40625 6.523438 2.707031 6.078125 2.21875 5.421875 C 1.394531 4.109375 0.492188 2.832031 -0.484375 1.59375 C -1.472656 0.363281 -2.132812 -0.988281 -2.46875 -2.46875 C -2.625 -2.789062 -2.742188 -3.113281 -2.828125 -3.4375 C -2.910156 -3.769531 -3.035156 -4.101562 -3.203125 -4.4375 C -3.367188 -4.925781 -3.53125 -5.414062 -3.6875 -5.90625 C -3.851562 -6.40625 -3.851562 -6.816406 -3.6875 -7.140625 C -3.53125 -8.128906 -3.570312 -9.15625 -3.8125 -10.21875 C -4.0625 -11.289062 -4.101562 -12.316406 -3.9375 -13.296875 C -3.9375 -18.554688 -3.441406 -23.8125 -2.453125 -29.0625 C -1.472656 -34.3125 -0.160156 -39.398438 1.484375 -44.328125 C 1.972656 -47.117188 2.707031 -49.664062 3.6875 -51.96875 C 4.019531 -53.28125 4.390625 -54.550781 4.796875 -55.78125 C 5.210938 -57.007812 5.503906 -58.28125 5.671875 -59.59375 C 5.671875 -59.59375 5.628906 -59.675781 5.546875 -59.84375 C 5.460938 -60.007812 5.503906 -60.175781 5.671875 -60.34375 C 5.828125 -60.664062 6.316406 -61.8125 7.140625 -63.78125 C 7.960938 -65.757812 8.90625 -67.976562 9.96875 -70.4375 C 11.039062 -72.894531 12.023438 -75.148438 12.921875 -77.203125 C 13.828125 -79.253906 14.28125 -80.363281 14.28125 -80.53125 C 14.613281 -81.84375 15.394531 -82.742188 16.625 -83.234375 C 17.851562 -83.734375 19.039062 -84.226562 20.1875 -84.71875 C 20.851562 -84.882812 21.59375 -84.679688 22.40625 -84.109375 C 23.226562 -83.535156 23.476562 -83 23.15625 -82.5 C 22.988281 -81.351562 23.023438 -80.203125 23.265625 -79.046875 C 23.515625 -77.898438 23.476562 -76.753906 23.15625 -75.609375 C 23.15625 -74.785156 22.828125 -74.128906 22.171875 -73.640625 C 21.671875 -73.148438 21.335938 -72.570312 21.171875 -71.90625 C 21.015625 -71.25 20.769531 -70.675781 20.4375 -70.1875 C 19.457031 -68.382812 18.640625 -66.617188 17.984375 -64.890625 C 17.328125 -63.171875 16.585938 -61.40625 15.765625 -59.59375 C 14.609375 -57.300781 13.25 -54.222656 11.6875 -50.359375 C 10.132812 -46.503906 8.78125 -42.644531 7.625 -38.78125 C 6.476562 -34.925781 5.828125 -31.601562 5.671875 -28.8125 C 5.003906 -26.1875 4.546875 -23.476562 4.296875 -20.6875 C 4.054688 -17.894531 3.773438 -15.101562 3.453125 -12.3125 C 3.453125 -12.144531 3.410156 -11.859375 3.328125 -11.453125 C 3.242188 -11.046875 3.285156 -10.675781 3.453125 -10.34375 C 3.773438 -8.863281 4.054688 -7.34375 4.296875 -5.78125 C 4.546875 -4.226562 4.753906 -2.710938 4.921875 -1.234375 L 4.921875 -0.734375 C 5.421875 0.578125 6.242188 1.234375 7.390625 1.234375 C 7.878906 1.234375 8.207031 1.148438 8.375 0.984375 C 9.6875 0.492188 10.875 -0.0351562 11.9375 -0.609375 C 13.007812 -1.191406 13.957031 -1.8125 14.78125 -2.46875 C 16.09375 -3.78125 17.445312 -5.007812 18.84375 -6.15625 C 20.238281 -7.300781 21.347656 -8.695312 22.171875 -10.34375 C 24.140625 -12.144531 25.820312 -14.113281 27.21875 -16.25 C 28.613281 -18.382812 30.128906 -20.273438 31.765625 -21.921875 C 32.421875 -22.578125 32.910156 -23.3125 33.234375 -24.125 C 33.566406 -24.945312 33.984375 -25.691406 34.484375 -26.359375 C 35.960938 -28.648438 37.359375 -31.023438 38.671875 -33.484375 C 39.984375 -35.953125 41.296875 -38.335938 42.609375 -40.640625 C 43.921875 -43.429688 45.191406 -46.257812 46.421875 -49.125 C 47.648438 -52 49.003906 -54.753906 50.484375 -57.390625 C 51.640625 -59.679688 52.664062 -62.015625 53.5625 -64.390625 C 54.46875 -66.773438 55.492188 -69.035156 56.640625 -71.171875 C 57.140625 -71.992188 57.507812 -72.816406 57.75 -73.640625 C 58 -74.460938 58.367188 -75.203125 58.859375 -75.859375 C 59.347656 -77.335938 59.878906 -78.8125 60.453125 -80.28125 C 61.035156 -81.757812 61.65625 -83.15625 62.3125 -84.46875 C 62.800781 -85.457031 63.375 -86.195312 64.03125 -86.6875 C 64.851562 -87.1875 65.59375 -87.4375 66.25 -87.4375 C 67.070312 -87.4375 67.726562 -87.1875 68.21875 -86.6875 C 68.21875 -86.363281 68.460938 -86.203125 68.953125 -86.203125 C 69.941406 -86.203125 70.722656 -85.992188 71.296875 -85.578125 C 71.867188 -85.171875 72.320312 -84.722656 72.65625 -84.234375 C 73.476562 -82.585938 73.5625 -81.191406 72.90625 -80.046875 C 69.945312 -72.984375 67.273438 -65.632812 64.890625 -58 C 62.515625 -50.363281 60.75 -42.6875 59.59375 -34.96875 C 59.59375 -34.3125 59.515625 -33.820312 59.359375 -33.5 C 58.859375 -30.863281 58.566406 -28.847656 58.484375 -27.453125 C 58.410156 -26.054688 58.535156 -24.128906 58.859375 -21.671875 C 59.191406 -20.847656 59.394531 -19.984375 59.46875 -19.078125 C 59.550781 -18.179688 59.675781 -17.238281 59.84375 -16.25 C 60.007812 -15.59375 60.296875 -14.976562 60.703125 -14.40625 C 61.117188 -13.832031 61.488281 -13.378906 61.8125 -13.046875 C 64.28125 -13.867188 66.582031 -14.851562 68.71875 -16 C 70.851562 -17.15625 72.820312 -18.472656 74.625 -19.953125 C 75.113281 -20.441406 75.644531 -20.972656 76.21875 -21.546875 C 76.800781 -22.117188 77.421875 -22.488281 78.078125 -22.65625 C 79.222656 -23.3125 80.242188 -24.050781 81.140625 -24.875 C 82.046875 -25.695312 82.992188 -26.4375 83.984375 -27.09375 C 84.804688 -27.914062 85.707031 -28.734375 86.6875 -29.546875 C 87.675781 -30.367188 88.660156 -31.109375 89.640625 -31.765625 C 89.640625 -31.765625 90.050781 -31.765625 90.875 -31.765625 Z M 45.8125 -42.609375 C 45.644531 -41.617188 45.351562 -40.585938 44.9375 -39.515625 C 44.53125 -38.453125 43.914062 -37.429688 43.09375 -36.453125 C 43.09375 -35.953125 43.257812 -35.457031 43.59375 -34.96875 C 43.914062 -35.457031 44.28125 -35.945312 44.6875 -36.4375 C 45.101562 -36.9375 45.394531 -37.351562 45.5625 -37.6875 C 46.050781 -38.664062 46.539062 -39.644531 47.03125 -40.625 C 47.53125 -41.613281 47.613281 -42.765625 47.28125 -44.078125 C 48.59375 -44.410156 49.453125 -45.023438 49.859375 -45.921875 C 50.273438 -46.828125 50.484375 -47.773438 50.484375 -48.765625 C 50.484375 -48.929688 50.441406 -49.050781 50.359375 -49.125 C 50.273438 -49.207031 50.234375 -49.332031 50.234375 -49.5 C 49.910156 -49.988281 49.421875 -49.90625 48.765625 -49.25 C 48.109375 -47.613281 47.613281 -45.890625 47.28125 -44.078125 C 46.789062 -43.921875 46.300781 -43.429688 45.8125 -42.609375 Z M 55.40625 -61.328125 C 55.738281 -61.328125 55.820312 -61.40625 55.65625 -61.5625 C 55.65625 -61.5625 55.613281 -61.5625 55.53125 -61.5625 C 55.445312 -61.5625 55.328125 -61.484375 55.171875 -61.328125 C 53.691406 -60.503906 53.035156 -59.597656 53.203125 -58.609375 C 53.203125 -57.628906 52.992188 -56.769531 52.578125 -56.03125 C 52.171875 -55.289062 51.71875 -54.507812 51.21875 -53.6875 C 51.0625 -53.195312 50.859375 -52.742188 50.609375 -52.328125 C 50.359375 -51.921875 50.070312 -51.390625 49.75 -50.734375 C 50.070312 -50.734375 50.273438 -50.691406 50.359375 -50.609375 C 50.441406 -50.523438 50.566406 -50.484375 50.734375 -50.484375 C 51.222656 -50.484375 51.632812 -50.648438 51.96875 -50.984375 C 52.789062 -52.296875 53.445312 -53.609375 53.9375 -54.921875 C 54.257812 -55.410156 54.335938 -55.898438 54.171875 -56.390625 C 54.015625 -56.890625 53.9375 -57.46875 53.9375 -58.125 C 54.101562 -58.613281 54.429688 -59.101562 54.921875 -59.59375 C 55.410156 -60.09375 55.492188 -60.671875 55.171875 -61.328125 C 55.171875 -61.328125 55.207031 -61.328125 55.28125 -61.328125 C 55.363281 -61.328125 55.40625 -61.328125 55.40625 -61.328125 Z M 98.265625 -38.171875 L 98.515625 -37.921875 L 98.515625 -37.6875 C 97.859375 -37.03125 97.238281 -36.410156 96.65625 -35.828125 C 96.082031 -35.253906 95.390625 -34.804688 94.578125 -34.484375 L 93.59375 -34.484375 C 94.25 -36.117188 95.804688 -37.347656 98.265625 -38.171875 Z M 42.359375 -29.796875 C 42.359375 -29.796875 42.316406 -29.796875 42.234375 -29.796875 C 42.148438 -29.796875 42.109375 -29.796875 42.109375 -29.796875 C 41.953125 -30.285156 41.953125 -30.695312 42.109375 -31.03125 C 42.273438 -31.363281 42.441406 -31.691406 42.609375 -32.015625 C 42.609375 -32.179688 42.566406 -32.304688 42.484375 -32.390625 C 42.398438 -32.472656 42.359375 -32.59375 42.359375 -32.75 C 42.035156 -32.75 41.789062 -32.671875 41.625 -32.515625 L 40.875 -31.765625 C 40.875 -31.765625 40.875 -31.519531 40.875 -31.03125 C 40.71875 -30.375 41.128906 -29.960938 42.109375 -29.796875 C 42.109375 -29.796875 42.191406 -29.796875 42.359375 -29.796875 Z M 36.453125 -23.15625 C 37.765625 -23.644531 38.175781 -24.460938 37.6875 -25.609375 C 36.363281 -25.285156 35.953125 -24.46875 36.453125 -23.15625 Z M 40.140625 -28.328125 C 40.140625 -28.648438 39.894531 -28.8125 39.40625 -28.8125 L 38.671875 -28.8125 C 38.503906 -28.488281 38.460938 -28.160156 38.546875 -27.828125 C 38.628906 -27.503906 38.671875 -27.09375 38.671875 -26.59375 C 39.484375 -26.757812 39.890625 -27.046875 39.890625 -27.453125 C 39.890625 -27.867188 39.972656 -28.160156 40.140625 -28.328125 Z M 31.53125 -14.53125 C 31.851562 -14.695312 32.015625 -14.859375 32.015625 -15.015625 C 32.015625 -15.179688 31.929688 -15.265625 31.765625 -15.265625 C 31.441406 -15.597656 31.195312 -15.765625 31.03125 -15.765625 C 30.695312 -15.597656 30.53125 -15.347656 30.53125 -15.015625 C 30.863281 -14.523438 31.195312 -14.363281 31.53125 -14.53125 Z M 29.796875 -10.09375 L 29.546875 -9.84375 L 30.046875 -9.359375 C 30.210938 -9.359375 30.332031 -9.4375 30.40625 -9.59375 C 30.488281 -9.757812 30.53125 -9.84375 30.53125 -9.84375 C 30.375 -10.007812 30.128906 -10.09375 29.796875 -10.09375 Z M 37.921875 -19.953125 L 38.421875 -20.4375 C 38.253906 -20.4375 38.085938 -20.4375 37.921875 -20.4375 C 37.765625 -20.4375 37.519531 -20.4375 37.1875 -20.4375 C 37.351562 -20.269531 37.476562 -20.1875 37.5625 -20.1875 C 37.644531 -20.1875 37.765625 -20.109375 37.921875 -19.953125 Z M 51.21875 -43.59375 L 51.21875 -44.078125 L 50.984375 -44.328125 L 50.484375 -44.078125 C 50.648438 -43.921875 50.773438 -43.84375 50.859375 -43.84375 C 50.941406 -43.84375 51.0625 -43.757812 51.21875 -43.59375 Z M 28.078125 -11.328125 L 28.5625 -11.578125 L 28.078125 -11.578125 Z M 51.71875 -46.046875 L 51.46875 -45.8125 L 51.71875 -45.8125 Z M 34.484375 -15.015625 L 34.484375 -14.78125 L 34.71875 -14.53125 Z M 34.234375 -20.4375 L 34.484375 -20.1875 L 34.484375 -20.4375 Z M 60.09375 -57.390625 L 60.09375 -57.625 L 59.84375 -57.625 Z M 33 -13.296875 L 32.75 -13.046875 L 33 -13.046875 Z M 27.578125 -8.375 L 27.578125 -7.875 Z M 27.578125 -8.375 "></path></g></g></g></g></g></svg></svg></g></g></svg></g></svg>